<svg xmlns="http://www.w3.org/2000/svg" viewBox="0 0 452.53 161.38"><defs><style>.cls-1{isolation:isolate;}.cls-2{fill:#8cc63f;}.cls-3,.cls-4{fill:#009245;}.cls-4,.cls-5,.cls-6{opacity:0.3;}.cls-4,.cls-8{mix-blend-mode:multiply;}.cls-5,.cls-7,.cls-8,.cls-9{fill:#fcf7a6;}.cls-5,.cls-6,.cls-9{mix-blend-mode:screen;}.cls-8{opacity:0.5;}.cls-9{opacity:0.8;}.cls-10{fill:#1c9e59;}.cls-11{fill:#006837;}.cls-12{fill:#fff;}</style></defs><g class="cls-1"><g id="Layer_2" data-name="Layer 2"><g id="Layer_1-2" data-name="Layer 1"><rect class="cls-2" x="145.57" y="-145.57" width="161.38" height="452.53" rx="25.06" transform="translate(306.96 -145.57) rotate(90)"/><rect class="cls-3" x="17.44" y="17.44" width="417.65" height="126.5" rx="8.33"/><path class="cls-4" d="M435.09,23.5V22.28a4.86,4.86,0,0,0-4.84-4.84h-408a4.86,4.86,0,0,0-4.84,4.84V23.5Z"/><circle class="cls-5" cx="9.68" cy="8.65" r="7.77" transform="translate(-3.28 9.38) rotate(-45)"/><g class="cls-6"><path class="cls-7" d="M9.68,15.35a6.71,6.71,0,1,1,6.7-6.7A6.71,6.71,0,0,1,9.68,15.35Zm0-11.66a5,5,0,1,0,5,5A5,5,0,0,0,9.68,3.69Z"/></g><circle class="cls-7" cx="9.68" cy="8.65" r="4.42"/><path class="cls-8" d="M13.43,6.33c.22,2.63-1.38,5.44-4.78,5.44A4.87,4.87,0,0,1,5.94,11a4.42,4.42,0,0,0,7.49-4.68Z"/><path class="cls-8" d="M13.82,7.16c.25,2.62-1.32,5.46-4.73,5.46a5,5,0,0,1-2-.4,4.37,4.37,0,0,0,2.6.85A4.42,4.42,0,0,0,14.1,8.65,4.29,4.29,0,0,0,13.82,7.16Z"/><path class="cls-9" d="M9.62,5.53c.24.41-.27,1.16-1.13,1.67s-1.76.58-2,.17.26-1.15,1.13-1.66S9.37,5.12,9.62,5.53Z"/><circle class="cls-5" cx="33.69" cy="8.65" r="7.77" transform="translate(19.76 40.52) rotate(-80.78)"/><g class="cls-6"><path class="cls-7" d="M33.69,15.35a6.71,6.71,0,1,1,6.71-6.7A6.7,6.7,0,0,1,33.69,15.35Zm0-11.66a5,5,0,1,0,5,5A5,5,0,0,0,33.69,3.69Z"/></g><circle class="cls-7" cx="33.69" cy="8.65" r="4.42"/><path class="cls-8" d="M37.45,6.33c.22,2.63-1.38,5.44-4.79,5.44A4.83,4.83,0,0,1,30,11a4.42,4.42,0,0,0,7.49-4.68Z"/><path class="cls-8" d="M37.84,7.16c.25,2.62-1.33,5.46-4.73,5.46a5.05,5.05,0,0,1-2-.4,4.42,4.42,0,0,0,7-3.57A4.28,4.28,0,0,0,37.84,7.16Z"/><path class="cls-9" d="M33.63,5.53c.24.41-.26,1.16-1.12,1.67s-1.76.58-2,.17.26-1.15,1.12-1.66S33.39,5.12,33.63,5.53Z"/><circle class="cls-5" cx="57.71" cy="8.65" r="7.77" transform="translate(9.84 42.02) rotate(-43.41)"/><g class="cls-6"><path class="cls-7" d="M57.71,15.35a6.71,6.71,0,1,1,6.7-6.7A6.71,6.71,0,0,1,57.71,15.35Zm0-11.66a5,5,0,1,0,5,5A5,5,0,0,0,57.71,3.69Z"/></g><circle class="cls-7" cx="57.71" cy="8.65" r="4.42"/><path class="cls-8" d="M61.47,6.33c.21,2.63-1.38,5.44-4.79,5.44A4.87,4.87,0,0,1,54,11a4.42,4.42,0,0,0,8.16-2.36A4.48,4.48,0,0,0,61.47,6.33Z"/><path class="cls-8" d="M61.85,7.16c.25,2.62-1.32,5.46-4.73,5.46a5,5,0,0,1-2-.4,4.37,4.37,0,0,0,2.6.85,4.42,4.42,0,0,0,4.42-4.42A4.29,4.29,0,0,0,61.85,7.16Z"/><path class="cls-9" d="M57.65,5.53c.24.41-.27,1.16-1.13,1.67s-1.76.58-2,.17.26-1.15,1.13-1.66S57.4,5.12,57.65,5.53Z"/><circle class="cls-5" cx="81.72" cy="8.65" r="7.77" transform="translate(60.04 87.92) rotate(-80.74)"/><g class="cls-6"><path class="cls-7" d="M81.72,15.35a6.71,6.71,0,1,1,6.71-6.7A6.7,6.7,0,0,1,81.72,15.35Zm0-11.66a5,5,0,1,0,5,5A5,5,0,0,0,81.72,3.69Z"/></g><circle class="cls-7" cx="81.72" cy="8.65" r="4.42"/><path class="cls-8" d="M85.48,6.33c.22,2.63-1.38,5.44-4.79,5.44A4.83,4.83,0,0,1,78,11a4.42,4.42,0,0,0,7.49-4.68Z"/><path class="cls-8" d="M85.87,7.16c.25,2.62-1.33,5.46-4.73,5.46a5.05,5.05,0,0,1-2-.4,4.42,4.42,0,0,0,7-3.57A4.28,4.28,0,0,0,85.87,7.16Z"/><path class="cls-9" d="M81.66,5.53c.24.41-.26,1.16-1.12,1.67s-1.76.58-2,.17.26-1.15,1.12-1.66S81.42,5.12,81.66,5.53Z"/><circle class="cls-5" cx="105.74" cy="8.65" r="7.77" transform="translate(24.85 77.3) rotate(-45)"/><g class="cls-6"><path class="cls-7" d="M105.74,15.35a6.71,6.71,0,1,1,6.7-6.7A6.71,6.71,0,0,1,105.74,15.35Zm0-11.66a5,5,0,1,0,5,5A5,5,0,0,0,105.74,3.69Z"/></g><circle class="cls-7" cx="105.74" cy="8.65" r="4.42"/><path class="cls-8" d="M109.5,6.33c.21,2.63-1.38,5.44-4.79,5.44A4.87,4.87,0,0,1,102,11a4.42,4.42,0,0,0,8.16-2.36A4.48,4.48,0,0,0,109.5,6.33Z"/><path class="cls-8" d="M109.88,7.16c.25,2.62-1.32,5.46-4.73,5.46a5,5,0,0,1-2-.4,4.42,4.42,0,0,0,7-3.57A4.29,4.29,0,0,0,109.88,7.16Z"/><path class="cls-9" d="M105.68,5.53c.24.41-.27,1.16-1.13,1.67s-1.76.58-2,.17.26-1.15,1.13-1.66S105.43,5.12,105.68,5.53Z"/><circle class="cls-5" cx="129.75" cy="8.65" r="7.77" transform="translate(89.11 132.17) rotate(-75.6)"/><g class="cls-6"><path class="cls-7" d="M129.75,15.35a6.71,6.71,0,1,1,6.71-6.7A6.7,6.7,0,0,1,129.75,15.35Zm0-11.66a5,5,0,1,0,5,5A5,5,0,0,0,129.75,3.69Z"/></g><circle class="cls-7" cx="129.75" cy="8.65" r="4.42"/><path class="cls-8" d="M133.51,6.33c.22,2.63-1.38,5.44-4.79,5.44A4.83,4.83,0,0,1,126,11a4.42,4.42,0,0,0,7.49-4.68Z"/><path class="cls-8" d="M133.9,7.16c.25,2.62-1.33,5.46-4.73,5.46a5.05,5.05,0,0,1-2-.4,4.42,4.42,0,0,0,7-3.57A4.28,4.28,0,0,0,133.9,7.16Z"/><path class="cls-9" d="M129.69,5.53c.24.41-.26,1.16-1.12,1.67s-1.76.58-2,.17.26-1.15,1.12-1.66S129.45,5.12,129.69,5.53Z"/><circle class="cls-5" cx="153.77" cy="8.65" r="7.77" transform="translate(38.92 111.26) rotate(-45)"/><g class="cls-6"><path class="cls-7" d="M153.77,15.35a6.71,6.71,0,1,1,6.7-6.7A6.71,6.71,0,0,1,153.77,15.35Zm0-11.66a5,5,0,1,0,5,5A5,5,0,0,0,153.77,3.69Z"/></g><circle class="cls-7" cx="153.77" cy="8.65" r="4.42"/><path class="cls-8" d="M157.53,6.33c.21,2.63-1.38,5.44-4.79,5.44A4.87,4.87,0,0,1,150,11a4.42,4.42,0,0,0,8.16-2.36A4.48,4.48,0,0,0,157.53,6.33Z"/><path class="cls-8" d="M157.91,7.16c.25,2.62-1.32,5.46-4.73,5.46a5,5,0,0,1-2-.4,4.42,4.42,0,0,0,7-3.57A4.29,4.29,0,0,0,157.91,7.16Z"/><path class="cls-9" d="M153.71,5.53c.24.41-.27,1.16-1.13,1.67s-1.76.58-2,.17.26-1.15,1.13-1.66S153.46,5.12,153.71,5.53Z"/><circle class="cls-5" cx="177.78" cy="8.65" r="7.77" transform="translate(128.29 179.62) rotate(-76.64)"/><g class="cls-6"><path class="cls-7" d="M177.78,15.35a6.71,6.71,0,1,1,6.71-6.7A6.7,6.7,0,0,1,177.78,15.35Zm0-11.66a5,5,0,1,0,5,5A5,5,0,0,0,177.78,3.69Z"/></g><circle class="cls-7" cx="177.78" cy="8.65" r="4.42"/><path class="cls-8" d="M181.54,6.33c.22,2.63-1.38,5.44-4.79,5.44a4.83,4.83,0,0,1-2.7-.76,4.42,4.42,0,0,0,7.49-4.68Z"/><path class="cls-8" d="M181.93,7.16c.25,2.62-1.33,5.46-4.73,5.46a5.05,5.05,0,0,1-2-.4,4.42,4.42,0,0,0,7-3.57A4.28,4.28,0,0,0,181.93,7.16Z"/><path class="cls-9" d="M177.72,5.53c.24.41-.26,1.16-1.12,1.67s-1.76.58-2,.17.26-1.15,1.12-1.66S177.48,5.12,177.72,5.53Z"/><circle class="cls-5" cx="201.8" cy="8.65" r="7.77" transform="translate(162.51 206.77) rotate(-81.24)"/><g class="cls-6"><path class="cls-7" d="M201.8,15.35a6.71,6.71,0,1,1,6.7-6.7A6.71,6.71,0,0,1,201.8,15.35Zm0-11.66a5,5,0,1,0,5,5A5,5,0,0,0,201.8,3.69Z"/></g><circle class="cls-7" cx="201.8" cy="8.65" r="4.42"/><path class="cls-8" d="M205.56,6.33c.21,2.63-1.38,5.44-4.79,5.44a4.87,4.87,0,0,1-2.71-.76,4.42,4.42,0,0,0,8.16-2.36A4.48,4.48,0,0,0,205.56,6.33Z"/><path class="cls-8" d="M206,7.16c.24,2.62-1.33,5.46-4.74,5.46a5,5,0,0,1-2-.4,4.42,4.42,0,0,0,7-3.57A4.28,4.28,0,0,0,206,7.16Z"/><path class="cls-9" d="M201.74,5.53c.24.41-.27,1.16-1.13,1.67s-1.76.58-2,.17.26-1.15,1.13-1.66S201.5,5.12,201.74,5.53Z"/><circle class="cls-5" cx="225.81" cy="8.65" r="7.77" transform="translate(165.22 226.35) rotate(-76.64)"/><g class="cls-6"><path class="cls-7" d="M225.81,15.35a6.71,6.71,0,1,1,6.71-6.7A6.7,6.7,0,0,1,225.81,15.35Zm0-11.66a5,5,0,1,0,5,5A5,5,0,0,0,225.81,3.69Z"/></g><circle class="cls-7" cx="225.81" cy="8.65" r="4.42"/><path class="cls-8" d="M229.57,6.33c.22,2.63-1.38,5.44-4.79,5.44a4.86,4.86,0,0,1-2.7-.76,4.42,4.42,0,0,0,7.49-4.68Z"/><path class="cls-8" d="M230,7.16c.25,2.62-1.33,5.46-4.73,5.46a5.05,5.05,0,0,1-2-.4,4.42,4.42,0,0,0,7-3.57A4.28,4.28,0,0,0,230,7.16Z"/><path class="cls-9" d="M225.75,5.53c.24.41-.26,1.16-1.12,1.67s-1.76.58-2,.17.26-1.15,1.12-1.66S225.51,5.12,225.75,5.53Z"/><circle class="cls-5" cx="249.83" cy="8.65" r="7.77" transform="translate(201.11 253.83) rotate(-80.74)"/><g class="cls-6"><path class="cls-7" d="M249.83,15.35a6.71,6.71,0,1,1,6.7-6.7A6.71,6.71,0,0,1,249.83,15.35Zm0-11.66a5,5,0,1,0,5,5A5,5,0,0,0,249.83,3.69Z"/></g><circle class="cls-7" cx="249.83" cy="8.65" r="4.42"/><path class="cls-8" d="M253.59,6.33c.21,2.63-1.38,5.44-4.79,5.44a4.87,4.87,0,0,1-2.71-.76,4.42,4.42,0,0,0,8.16-2.36A4.48,4.48,0,0,0,253.59,6.33Z"/><path class="cls-8" d="M254,7.16c.24,2.62-1.33,5.46-4.74,5.46a5,5,0,0,1-2-.4,4.42,4.42,0,0,0,7-3.57A4.28,4.28,0,0,0,254,7.16Z"/><path class="cls-9" d="M249.77,5.53c.24.41-.27,1.16-1.13,1.67s-1.76.58-2,.17.27-1.15,1.13-1.66S249.53,5.12,249.77,5.53Z"/><circle class="cls-5" cx="273.84" cy="8.65" r="7.77" transform="translate(205.34 273.93) rotate(-77.33)"/><g class="cls-6"><path class="cls-7" d="M273.84,15.35a6.71,6.71,0,1,1,6.71-6.7A6.7,6.7,0,0,1,273.84,15.35Zm0-11.66a5,5,0,1,0,5,5A5,5,0,0,0,273.84,3.69Z"/></g><circle class="cls-7" cx="273.84" cy="8.65" r="4.42"/><path class="cls-8" d="M277.6,6.33c.22,2.63-1.38,5.44-4.79,5.44a4.86,4.86,0,0,1-2.7-.76,4.42,4.42,0,0,0,7.49-4.68Z"/><path class="cls-8" d="M278,7.16c.25,2.62-1.33,5.46-4.73,5.46a5.05,5.05,0,0,1-2-.4,4.42,4.42,0,0,0,7-3.57A4.28,4.28,0,0,0,278,7.16Z"/><path class="cls-9" d="M273.78,5.53c.24.41-.26,1.16-1.12,1.67s-1.76.58-2,.17.26-1.15,1.12-1.66S273.54,5.12,273.78,5.53Z"/><circle class="cls-5" cx="297.86" cy="8.65" r="7.77" transform="translate(241.41 301.24) rotate(-80.74)"/><g class="cls-6"><path class="cls-7" d="M297.86,15.35a6.71,6.71,0,1,1,6.7-6.7A6.71,6.71,0,0,1,297.86,15.35Zm0-11.66a5,5,0,1,0,5,5A5,5,0,0,0,297.86,3.69Z"/></g><circle class="cls-7" cx="297.86" cy="8.65" r="4.42"/><path class="cls-8" d="M301.62,6.33c.21,2.63-1.38,5.44-4.79,5.44a4.87,4.87,0,0,1-2.71-.76,4.42,4.42,0,0,0,8.16-2.36A4.48,4.48,0,0,0,301.62,6.33Z"/><path class="cls-8" d="M302,7.16c.24,2.62-1.33,5.46-4.74,5.46a5,5,0,0,1-2-.4,4.42,4.42,0,0,0,7-3.57A4.28,4.28,0,0,0,302,7.16Z"/><path class="cls-9" d="M297.8,5.53c.24.41-.26,1.16-1.13,1.67s-1.76.58-2,.17.27-1.15,1.13-1.66S297.56,5.12,297.8,5.53Z"/><circle class="cls-5" cx="321.87" cy="8.65" r="7.77" transform="translate(88.16 230.13) rotate(-45)"/><g class="cls-6"><path class="cls-7" d="M321.87,15.35a6.71,6.71,0,1,1,6.71-6.7A6.71,6.71,0,0,1,321.87,15.35Zm0-11.66a5,5,0,1,0,5,5A5,5,0,0,0,321.87,3.69Z"/></g><circle class="cls-7" cx="321.87" cy="8.65" r="4.42"/><path class="cls-8" d="M325.63,6.33c.22,2.63-1.38,5.44-4.79,5.44a4.86,4.86,0,0,1-2.7-.76,4.42,4.42,0,0,0,7.49-4.68Z"/><path class="cls-8" d="M326,7.16c.25,2.62-1.33,5.46-4.73,5.46a5.05,5.05,0,0,1-2-.4,4.42,4.42,0,0,0,7-3.57A4.28,4.28,0,0,0,326,7.16Z"/><path class="cls-9" d="M321.81,5.53c.24.41-.26,1.16-1.12,1.67s-1.76.58-2,.17.26-1.15,1.12-1.66S321.57,5.12,321.81,5.53Z"/><circle class="cls-5" cx="345.89" cy="8.65" r="7.77" transform="translate(272.85 346.85) rotate(-79.25)"/><g class="cls-6"><path class="cls-7" d="M345.89,15.35a6.71,6.71,0,1,1,6.7-6.7A6.71,6.71,0,0,1,345.89,15.35Zm0-11.66a5,5,0,1,0,5,5A5,5,0,0,0,345.89,3.69Z"/></g><circle class="cls-7" cx="345.89" cy="8.65" r="4.42"/><path class="cls-8" d="M349.65,6.33c.21,2.63-1.38,5.44-4.79,5.44a4.87,4.87,0,0,1-2.71-.76,4.42,4.42,0,0,0,8.16-2.36A4.48,4.48,0,0,0,349.65,6.33Z"/><path class="cls-8" d="M350,7.16c.24,2.62-1.33,5.46-4.74,5.46a5,5,0,0,1-2-.4,4.42,4.42,0,0,0,7-3.57A4.28,4.28,0,0,0,350,7.16Z"/><path class="cls-9" d="M345.83,5.53c.24.41-.26,1.16-1.13,1.67s-1.76.58-2,.17.27-1.15,1.13-1.66S345.59,5.12,345.83,5.53Z"/><circle class="cls-5" cx="369.9" cy="8.65" r="7.77" transform="translate(102.23 264.09) rotate(-45)"/><g class="cls-6"><path class="cls-7" d="M369.9,15.35a6.71,6.71,0,1,1,6.71-6.7A6.71,6.71,0,0,1,369.9,15.35Zm0-11.66a5,5,0,1,0,5,5A5,5,0,0,0,369.9,3.69Z"/></g><circle class="cls-7" cx="369.9" cy="8.65" r="4.42"/><path class="cls-8" d="M373.66,6.33c.22,2.63-1.38,5.44-4.79,5.44a4.86,4.86,0,0,1-2.7-.76,4.42,4.42,0,0,0,7.49-4.68Z"/><path class="cls-8" d="M374.05,7.16c.25,2.62-1.33,5.46-4.73,5.46a5.05,5.05,0,0,1-2-.4,4.42,4.42,0,0,0,7-3.57A4.28,4.28,0,0,0,374.05,7.16Z"/><path class="cls-9" d="M369.84,5.53c.24.41-.26,1.16-1.12,1.67s-1.76.58-2,.17.26-1.15,1.12-1.66S369.6,5.12,369.84,5.53Z"/><circle class="cls-5" cx="393.92" cy="8.65" r="7.77" transform="translate(294.48 389.91) rotate(-76.64)"/><g class="cls-6"><path class="cls-7" d="M393.92,15.35a6.71,6.71,0,1,1,6.7-6.7A6.71,6.71,0,0,1,393.92,15.35Zm0-11.66a5,5,0,1,0,5,5A5,5,0,0,0,393.92,3.69Z"/></g><circle class="cls-7" cx="393.92" cy="8.65" r="4.42"/><path class="cls-8" d="M397.68,6.33c.21,2.63-1.38,5.44-4.79,5.44a4.81,4.81,0,0,1-2.7-.76,4.42,4.42,0,0,0,8.15-2.36A4.48,4.48,0,0,0,397.68,6.33Z"/><path class="cls-8" d="M398.07,7.16c.24,2.62-1.33,5.46-4.74,5.46a5,5,0,0,1-2-.4,4.42,4.42,0,0,0,7-3.57A4.28,4.28,0,0,0,398.07,7.16Z"/><path class="cls-9" d="M393.86,5.53c.24.41-.26,1.16-1.13,1.67s-1.75.58-2,.17.27-1.15,1.13-1.66S393.62,5.12,393.86,5.53Z"/><circle class="cls-5" cx="417.93" cy="8.65" r="7.77" transform="matrix(0.58, -0.82, 0.82, 0.58, 169.82, 345.07)"/><g class="cls-6"><path class="cls-7" d="M417.93,15.35a6.71,6.71,0,1,1,6.71-6.7A6.71,6.71,0,0,1,417.93,15.35Zm0-11.66a5,5,0,1,0,5,5A5,5,0,0,0,417.93,3.69Z"/></g><circle class="cls-7" cx="417.93" cy="8.65" r="4.42"/><path class="cls-8" d="M421.69,6.33c.22,2.63-1.38,5.44-4.79,5.44a4.86,4.86,0,0,1-2.7-.76,4.42,4.42,0,0,0,7.49-4.68Z"/><path class="cls-8" d="M422.08,7.16c.25,2.62-1.33,5.46-4.73,5.46a5.05,5.05,0,0,1-2-.4,4.42,4.42,0,0,0,7-3.57A4.28,4.28,0,0,0,422.08,7.16Z"/><path class="cls-9" d="M417.87,5.53c.24.41-.26,1.16-1.12,1.67s-1.76.58-2,.17.26-1.15,1.12-1.66S417.63,5.12,417.87,5.53Z"/><circle class="cls-5" cx="441.95" cy="8.65" r="7.77" transform="translate(331.41 436.64) rotate(-76.64)"/><g class="cls-6"><path class="cls-7" d="M442,15.35a6.71,6.71,0,1,1,6.7-6.7A6.71,6.71,0,0,1,442,15.35Zm0-11.66a5,5,0,1,0,5,5A5,5,0,0,0,442,3.69Z"/></g><circle class="cls-7" cx="441.95" cy="8.65" r="4.42"/><path class="cls-8" d="M445.71,6.33c.21,2.63-1.38,5.44-4.79,5.44a4.81,4.81,0,0,1-2.7-.76,4.42,4.42,0,0,0,8.15-2.36A4.48,4.48,0,0,0,445.71,6.33Z"/><path class="cls-8" d="M446.1,7.16c.25,2.62-1.33,5.46-4.74,5.46a5,5,0,0,1-2-.4,4.42,4.42,0,0,0,7-3.57A4.28,4.28,0,0,0,446.1,7.16Z"/><path class="cls-9" d="M441.89,5.53c.24.41-.26,1.16-1.13,1.67s-1.75.58-2,.17.27-1.15,1.13-1.66S441.65,5.12,441.89,5.53Z"/><circle class="cls-5" cx="9.68" cy="152.12" r="7.77" transform="translate(-140.6 126.59) rotate(-76.72)"/><g class="cls-6"><path class="cls-7" d="M9.68,158.82a6.71,6.71,0,1,1,6.7-6.7A6.71,6.71,0,0,1,9.68,158.82Zm0-11.66a5,5,0,1,0,5,5A5,5,0,0,0,9.68,147.16Z"/></g><circle class="cls-7" cx="9.68" cy="152.12" r="4.42"/><path class="cls-8" d="M13.43,149.8c.22,2.63-1.38,5.44-4.78,5.44a4.87,4.87,0,0,1-2.71-.76,4.42,4.42,0,0,0,8.16-2.36A4.37,4.37,0,0,0,13.43,149.8Z"/><path class="cls-8" d="M13.82,150.63c.25,2.62-1.32,5.46-4.73,5.46a5,5,0,0,1-2-.4,4.37,4.37,0,0,0,2.6.85,4.42,4.42,0,0,0,4.42-4.42A4.29,4.29,0,0,0,13.82,150.63Z"/><path class="cls-9" d="M9.62,149c.24.41-.27,1.16-1.13,1.66s-1.76.59-2,.18.26-1.15,1.13-1.66S9.37,148.59,9.62,149Z"/><circle class="cls-5" cx="33.69" cy="152.12" r="7.77" transform="translate(-55.65 24.47) rotate(-22.5)"/><g class="cls-6"><path class="cls-7" d="M33.69,158.82a6.71,6.71,0,1,1,6.71-6.7A6.7,6.7,0,0,1,33.69,158.82Zm0-11.66a5,5,0,1,0,5,5A5,5,0,0,0,33.69,147.16Z"/></g><circle class="cls-7" cx="33.69" cy="152.12" r="4.42"/><path class="cls-8" d="M37.45,149.8c.22,2.63-1.38,5.44-4.79,5.44a4.83,4.83,0,0,1-2.7-.76,4.42,4.42,0,0,0,7.49-4.68Z"/><path class="cls-8" d="M37.84,150.63c.25,2.62-1.33,5.46-4.73,5.46a5.05,5.05,0,0,1-2-.4,4.42,4.42,0,0,0,7-3.57A4.28,4.28,0,0,0,37.84,150.63Z"/><path class="cls-9" d="M33.63,149c.24.41-.26,1.16-1.12,1.66s-1.76.59-2,.18.26-1.15,1.12-1.66S33.39,148.59,33.63,149Z"/><circle class="cls-5" cx="57.71" cy="152.12" r="7.77" transform="translate(-103.48 174.21) rotate(-77.03)"/><g class="cls-6"><path class="cls-7" d="M57.71,158.82a6.71,6.71,0,1,1,6.7-6.7A6.71,6.71,0,0,1,57.71,158.82Zm0-11.66a5,5,0,1,0,5,5A5,5,0,0,0,57.71,147.16Z"/></g><circle class="cls-7" cx="57.71" cy="152.12" r="4.42"/><path class="cls-8" d="M61.47,149.8c.21,2.63-1.38,5.44-4.79,5.44a4.87,4.87,0,0,1-2.71-.76,4.42,4.42,0,0,0,7.5-4.68Z"/><path class="cls-8" d="M61.85,150.63c.25,2.62-1.32,5.46-4.73,5.46a5,5,0,0,1-2-.4,4.37,4.37,0,0,0,2.6.85,4.42,4.42,0,0,0,4.42-4.42A4.29,4.29,0,0,0,61.85,150.63Z"/><path class="cls-9" d="M57.65,149c.24.41-.27,1.16-1.13,1.66s-1.76.59-2,.18.26-1.15,1.13-1.66S57.4,148.59,57.65,149Z"/><circle class="cls-5" cx="81.72" cy="152.12" r="7.77" transform="translate(-52.36 43.31) rotate(-22.69)"/><g class="cls-6"><path class="cls-7" d="M81.72,158.82a6.71,6.71,0,1,1,6.71-6.7A6.7,6.7,0,0,1,81.72,158.82Zm0-11.66a5,5,0,1,0,5,5A5,5,0,0,0,81.72,147.16Z"/></g><circle class="cls-7" cx="81.72" cy="152.12" r="4.42"/><path class="cls-8" d="M85.48,149.8c.22,2.63-1.38,5.44-4.79,5.44a4.83,4.83,0,0,1-2.7-.76,4.42,4.42,0,0,0,7.49-4.68Z"/><path class="cls-8" d="M85.87,150.63c.25,2.62-1.33,5.46-4.73,5.46a5.05,5.05,0,0,1-2-.4,4.42,4.42,0,0,0,7-3.57A4.28,4.28,0,0,0,85.87,150.63Z"/><path class="cls-9" d="M81.66,149c.24.41-.26,1.16-1.12,1.66s-1.76.59-2,.18.26-1.15,1.12-1.66S81.42,148.59,81.66,149Z"/><circle class="cls-5" cx="105.74" cy="152.12" r="7.77" transform="translate(-66.51 220.31) rotate(-76.79)"/><g class="cls-6"><path class="cls-7" d="M105.74,158.82a6.71,6.71,0,1,1,6.7-6.7A6.71,6.71,0,0,1,105.74,158.82Zm0-11.66a5,5,0,1,0,5,5A5,5,0,0,0,105.74,147.16Z"/></g><circle class="cls-7" cx="105.74" cy="152.12" r="4.42"/><path class="cls-8" d="M109.5,149.8c.21,2.63-1.38,5.44-4.79,5.44a4.87,4.87,0,0,1-2.71-.76,4.42,4.42,0,0,0,7.5-4.68Z"/><path class="cls-8" d="M109.88,150.63c.25,2.62-1.32,5.46-4.73,5.46a5,5,0,0,1-2-.4,4.42,4.42,0,0,0,7-3.57A4.29,4.29,0,0,0,109.88,150.63Z"/><path class="cls-9" d="M105.68,149c.24.41-.27,1.16-1.13,1.66s-1.76.59-2,.18.26-1.15,1.13-1.66S105.43,148.59,105.68,149Z"/><circle class="cls-5" cx="129.75" cy="152.12" r="7.77" transform="translate(-70.18 154.16) rotate(-50.12)"/><g class="cls-6"><path class="cls-7" d="M129.75,158.82a6.71,6.71,0,1,1,6.71-6.7A6.7,6.7,0,0,1,129.75,158.82Zm0-11.66a5,5,0,1,0,5,5A5,5,0,0,0,129.75,147.16Z"/></g><circle class="cls-7" cx="129.75" cy="152.12" r="4.42"/><path class="cls-8" d="M133.51,149.8c.22,2.63-1.38,5.44-4.79,5.44a4.83,4.83,0,0,1-2.7-.76,4.42,4.42,0,0,0,7.49-4.68Z"/><path class="cls-8" d="M133.9,150.63c.25,2.62-1.33,5.46-4.73,5.46a5.05,5.05,0,0,1-2-.4,4.42,4.42,0,0,0,7-3.57A4.28,4.28,0,0,0,133.9,150.63Z"/><path class="cls-9" d="M129.69,149c.24.41-.26,1.16-1.12,1.66s-1.76.59-2,.18.26-1.15,1.12-1.66S129.45,148.59,129.69,149Z"/><circle class="cls-5" cx="153.77" cy="152.12" r="7.77" transform="translate(-29.46 267.07) rotate(-76.79)"/><g class="cls-6"><path class="cls-7" d="M153.77,158.82a6.71,6.71,0,1,1,6.7-6.7A6.71,6.71,0,0,1,153.77,158.82Zm0-11.66a5,5,0,1,0,5,5A5,5,0,0,0,153.77,147.16Z"/></g><circle class="cls-7" cx="153.77" cy="152.12" r="4.42"/><path class="cls-8" d="M157.53,149.8c.21,2.63-1.38,5.44-4.79,5.44a4.87,4.87,0,0,1-2.71-.76,4.42,4.42,0,0,0,7.5-4.68Z"/><path class="cls-8" d="M157.91,150.63c.25,2.62-1.32,5.46-4.73,5.46a5,5,0,0,1-2-.4,4.42,4.42,0,0,0,7-3.57A4.29,4.29,0,0,0,157.91,150.63Z"/><path class="cls-9" d="M153.71,149c.24.41-.27,1.16-1.13,1.66s-1.76.59-2,.18.26-1.15,1.13-1.66S153.46,148.59,153.71,149Z"/><circle class="cls-5" cx="177.78" cy="152.12" r="7.77" transform="translate(-55.49 170.27) rotate(-45)"/><g class="cls-6"><path class="cls-7" d="M177.78,158.82a6.71,6.71,0,1,1,6.71-6.7A6.7,6.7,0,0,1,177.78,158.82Zm0-11.66a5,5,0,1,0,5,5A5,5,0,0,0,177.78,147.16Z"/></g><circle class="cls-7" cx="177.78" cy="152.12" r="4.42"/><path class="cls-8" d="M181.54,149.8c.22,2.63-1.38,5.44-4.79,5.44a4.83,4.83,0,0,1-2.7-.76,4.42,4.42,0,0,0,7.49-4.68Z"/><path class="cls-8" d="M181.93,150.63c.25,2.62-1.33,5.46-4.73,5.46a5.05,5.05,0,0,1-2-.4,4.42,4.42,0,0,0,7-3.57A4.28,4.28,0,0,0,181.93,150.63Z"/><path class="cls-9" d="M177.72,149c.24.41-.26,1.16-1.12,1.66s-1.76.59-2,.18.26-1.15,1.12-1.66S177.48,148.59,177.72,149Z"/><circle class="cls-5" cx="201.8" cy="152.12" r="7.77" transform="translate(-40.23 79.43) rotate(-20.29)"/><g class="cls-6"><path class="cls-7" d="M201.8,158.82a6.71,6.71,0,1,1,6.7-6.7A6.71,6.71,0,0,1,201.8,158.82Zm0-11.66a5,5,0,1,0,5,5A5,5,0,0,0,201.8,147.16Z"/></g><circle class="cls-7" cx="201.8" cy="152.12" r="4.42"/><path class="cls-8" d="M205.56,149.8c.21,2.63-1.38,5.44-4.79,5.44a4.87,4.87,0,0,1-2.71-.76,4.42,4.42,0,0,0,7.5-4.68Z"/><path class="cls-8" d="M206,150.63c.24,2.62-1.33,5.46-4.74,5.46a5,5,0,0,1-2-.4,4.42,4.42,0,0,0,7-3.57A4.28,4.28,0,0,0,206,150.63Z"/><path class="cls-9" d="M201.74,149c.24.41-.27,1.16-1.13,1.66s-1.76.59-2,.18.26-1.15,1.13-1.66S201.5,148.59,201.74,149Z"/><circle class="cls-5" cx="225.81" cy="152.12" r="7.77" transform="translate(-41.43 204.23) rotate(-45)"/><g class="cls-6"><path class="cls-7" d="M225.81,158.82a6.71,6.71,0,1,1,6.71-6.7A6.7,6.7,0,0,1,225.81,158.82Zm0-11.66a5,5,0,1,0,5,5A5,5,0,0,0,225.81,147.16Z"/></g><circle class="cls-7" cx="225.81" cy="152.12" r="4.42"/><path class="cls-8" d="M229.57,149.8c.22,2.63-1.38,5.44-4.79,5.44a4.86,4.86,0,0,1-2.7-.76,4.42,4.42,0,0,0,7.49-4.68Z"/><path class="cls-8" d="M230,150.63c.25,2.62-1.33,5.46-4.73,5.46a5.05,5.05,0,0,1-2-.4,4.42,4.42,0,0,0,7-3.57A4.28,4.28,0,0,0,230,150.63Z"/><path class="cls-9" d="M225.75,149c.24.41-.26,1.16-1.12,1.66s-1.76.59-2,.18.26-1.15,1.12-1.66S225.51,148.59,225.75,149Z"/><circle class="cls-5" cx="249.83" cy="152.12" r="7.77" transform="translate(-39.35 108.17) rotate(-22.69)"/><g class="cls-6"><path class="cls-7" d="M249.83,158.82a6.71,6.71,0,1,1,6.7-6.7A6.71,6.71,0,0,1,249.83,158.82Zm0-11.66a5,5,0,1,0,5,5A5,5,0,0,0,249.83,147.16Z"/></g><circle class="cls-7" cx="249.83" cy="152.12" r="4.42"/><path class="cls-8" d="M253.59,149.8c.21,2.63-1.38,5.44-4.79,5.44a4.87,4.87,0,0,1-2.71-.76,4.42,4.42,0,0,0,7.5-4.68Z"/><path class="cls-8" d="M254,150.63c.24,2.62-1.33,5.46-4.74,5.46a5,5,0,0,1-2-.4,4.42,4.42,0,0,0,7-3.57A4.28,4.28,0,0,0,254,150.63Z"/><path class="cls-9" d="M249.77,149c.24.41-.27,1.16-1.13,1.66s-1.76.59-2,.18.27-1.15,1.13-1.66S249.53,148.59,249.77,149Z"/><circle class="cls-5" cx="273.84" cy="152.12" r="7.77" transform="translate(-31.67 221.33) rotate(-41.82)"/><g class="cls-6"><path class="cls-7" d="M273.84,158.82a6.71,6.71,0,1,1,6.71-6.7A6.7,6.7,0,0,1,273.84,158.82Zm0-11.66a5,5,0,1,0,5,5A5,5,0,0,0,273.84,147.16Z"/></g><circle class="cls-7" cx="273.84" cy="152.12" r="4.42"/><path class="cls-8" d="M277.6,149.8c.22,2.63-1.38,5.44-4.79,5.44a4.86,4.86,0,0,1-2.7-.76,4.42,4.42,0,0,0,7.49-4.68Z"/><path class="cls-8" d="M278,150.63c.25,2.62-1.33,5.46-4.73,5.46a5.05,5.05,0,0,1-2-.4,4.42,4.42,0,0,0,7-3.57A4.28,4.28,0,0,0,278,150.63Z"/><path class="cls-9" d="M273.78,149c.24.41-.26,1.16-1.12,1.66s-1.76.59-2,.18.26-1.15,1.12-1.66S273.54,148.59,273.78,149Z"/><circle class="cls-5" cx="297.86" cy="152.12" r="7.77" transform="translate(-35.63 126.7) rotate(-22.69)"/><g class="cls-6"><path class="cls-7" d="M297.86,158.82a6.71,6.71,0,1,1,6.7-6.7A6.71,6.71,0,0,1,297.86,158.82Zm0-11.66a5,5,0,1,0,5,5A5,5,0,0,0,297.86,147.16Z"/></g><circle class="cls-7" cx="297.86" cy="152.12" r="4.42"/><path class="cls-8" d="M301.62,149.8c.21,2.63-1.38,5.44-4.79,5.44a4.87,4.87,0,0,1-2.71-.76,4.42,4.42,0,0,0,7.5-4.68Z"/><path class="cls-8" d="M302,150.63c.24,2.62-1.33,5.46-4.74,5.46a5,5,0,0,1-2-.4,4.42,4.42,0,0,0,7-3.57A4.28,4.28,0,0,0,302,150.63Z"/><path class="cls-9" d="M297.8,149c.24.41-.26,1.16-1.13,1.66s-1.76.59-2,.18.27-1.15,1.13-1.66S297.56,148.59,297.8,149Z"/><circle class="cls-5" cx="321.87" cy="152.12" r="7.77" transform="translate(100.25 430.73) rotate(-76.79)"/><g class="cls-6"><path class="cls-7" d="M321.87,158.82a6.71,6.71,0,1,1,6.71-6.7A6.71,6.71,0,0,1,321.87,158.82Zm0-11.66a5,5,0,1,0,5,5A5,5,0,0,0,321.87,147.16Z"/></g><circle class="cls-7" cx="321.87" cy="152.12" r="4.42"/><path class="cls-8" d="M325.63,149.8c.22,2.63-1.38,5.44-4.79,5.44a4.86,4.86,0,0,1-2.7-.76,4.42,4.42,0,0,0,7.49-4.68Z"/><path class="cls-8" d="M326,150.63c.25,2.62-1.33,5.46-4.73,5.46a5.05,5.05,0,0,1-2-.4,4.42,4.42,0,0,0,7-3.57A4.28,4.28,0,0,0,326,150.63Z"/><path class="cls-9" d="M321.81,149c.24.41-.26,1.16-1.12,1.66s-1.76.59-2,.18.26-1.15,1.12-1.66S321.57,148.59,321.81,149Z"/><circle class="cls-5" cx="345.89" cy="152.12" r="7.77" transform="translate(-29.05 199.02) rotate(-30.87)"/><g class="cls-6"><path class="cls-7" d="M345.89,158.82a6.71,6.71,0,1,1,6.7-6.7A6.71,6.71,0,0,1,345.89,158.82Zm0-11.66a5,5,0,1,0,5,5A5,5,0,0,0,345.89,147.16Z"/></g><circle class="cls-7" cx="345.89" cy="152.12" r="4.42"/><path class="cls-8" d="M349.65,149.8c.21,2.63-1.38,5.44-4.79,5.44a4.87,4.87,0,0,1-2.71-.76,4.42,4.42,0,0,0,7.5-4.68Z"/><path class="cls-8" d="M350,150.63c.24,2.62-1.33,5.46-4.74,5.46a5,5,0,0,1-2-.4,4.42,4.42,0,0,0,7-3.57A4.28,4.28,0,0,0,350,150.63Z"/><path class="cls-9" d="M345.83,149c.24.41-.26,1.16-1.13,1.66s-1.76.59-2,.18.27-1.15,1.13-1.66S345.59,148.59,345.83,149Z"/><circle class="cls-5" cx="369.9" cy="152.12" r="7.77" transform="translate(137.3 477.49) rotate(-76.79)"/><g class="cls-6"><path class="cls-7" d="M369.9,158.82a6.71,6.71,0,1,1,6.71-6.7A6.71,6.71,0,0,1,369.9,158.82Zm0-11.66a5,5,0,1,0,5,5A5,5,0,0,0,369.9,147.16Z"/></g><circle class="cls-7" cx="369.9" cy="152.12" r="4.42"/><path class="cls-8" d="M373.66,149.8c.22,2.63-1.38,5.44-4.79,5.44a4.86,4.86,0,0,1-2.7-.76,4.42,4.42,0,0,0,7.49-4.68Z"/><path class="cls-8" d="M374.05,150.63c.25,2.62-1.33,5.46-4.73,5.46a5.05,5.05,0,0,1-2-.4,4.42,4.42,0,0,0,7-3.57A4.28,4.28,0,0,0,374.05,150.63Z"/><path class="cls-9" d="M369.84,149c.24.41-.26,1.16-1.12,1.66s-1.76.59-2,.18.26-1.15,1.12-1.66S369.6,148.59,369.84,149Z"/><circle class="cls-5" cx="393.92" cy="152.12" r="7.77" transform="translate(7.81 323.1) rotate(-45)"/><g class="cls-6"><path class="cls-7" d="M393.92,158.82a6.71,6.71,0,1,1,6.7-6.7A6.71,6.71,0,0,1,393.92,158.82Zm0-11.66a5,5,0,1,0,5,5A5,5,0,0,0,393.92,147.16Z"/></g><circle class="cls-7" cx="393.92" cy="152.12" r="4.42"/><path class="cls-8" d="M397.68,149.8c.21,2.63-1.38,5.44-4.79,5.44a4.81,4.81,0,0,1-2.7-.76,4.42,4.42,0,0,0,8.15-2.36A4.45,4.45,0,0,0,397.68,149.8Z"/><path class="cls-8" d="M398.07,150.63c.24,2.62-1.33,5.46-4.74,5.46a5,5,0,0,1-2-.4,4.42,4.42,0,0,0,7-3.57A4.28,4.28,0,0,0,398.07,150.63Z"/><path class="cls-9" d="M393.86,149c.24.41-.26,1.16-1.13,1.66s-1.75.59-2,.18.27-1.15,1.13-1.66S393.62,148.59,393.86,149Z"/><circle class="cls-5" cx="417.93" cy="152.12" r="7.77" transform="translate(158.72 513.53) rotate(-74.35)"/><g class="cls-6"><path class="cls-7" d="M417.93,158.82a6.71,6.71,0,1,1,6.71-6.7A6.71,6.71,0,0,1,417.93,158.82Zm0-11.66a5,5,0,1,0,5,5A5,5,0,0,0,417.93,147.16Z"/></g><circle class="cls-7" cx="417.93" cy="152.12" r="4.42"/><path class="cls-8" d="M421.69,149.8c.22,2.63-1.38,5.44-4.79,5.44a4.86,4.86,0,0,1-2.7-.76,4.42,4.42,0,0,0,7.49-4.68Z"/><path class="cls-8" d="M422.08,150.63c.25,2.62-1.33,5.46-4.73,5.46a5.05,5.05,0,0,1-2-.4,4.42,4.42,0,0,0,7-3.57A4.28,4.28,0,0,0,422.08,150.63Z"/><path class="cls-9" d="M417.87,149c.24.41-.26,1.16-1.12,1.66s-1.76.59-2,.18.26-1.15,1.12-1.66S417.63,148.59,417.87,149Z"/><circle class="cls-5" cx="441.95" cy="152.12" r="7.77" transform="translate(21.88 357.06) rotate(-45)"/><g class="cls-6"><path class="cls-7" d="M442,158.82a6.71,6.71,0,1,1,6.7-6.7A6.71,6.71,0,0,1,442,158.82Zm0-11.66a5,5,0,1,0,5,5A5,5,0,0,0,442,147.16Z"/></g><circle class="cls-7" cx="441.95" cy="152.12" r="4.42"/><path class="cls-8" d="M445.71,149.8c.21,2.63-1.38,5.44-4.79,5.44a4.81,4.81,0,0,1-2.7-.76,4.42,4.42,0,0,0,8.15-2.36A4.45,4.45,0,0,0,445.71,149.8Z"/><path class="cls-8" d="M446.1,150.63c.25,2.62-1.33,5.46-4.74,5.46a5,5,0,0,1-2-.4,4.42,4.42,0,0,0,7-3.57A4.28,4.28,0,0,0,446.1,150.63Z"/><path class="cls-9" d="M441.89,149c.24.41-.26,1.16-1.13,1.66s-1.75.59-2,.18.27-1.15,1.13-1.66S441.65,148.59,441.89,149Z"/><circle class="cls-5" cx="443.67" cy="128.21" r="7.77"/><g class="cls-6"><path class="cls-7" d="M443.67,134.91a6.71,6.71,0,1,1,6.71-6.7A6.72,6.72,0,0,1,443.67,134.91Zm0-11.66a5,5,0,1,0,5,5A5,5,0,0,0,443.67,123.25Z"/></g><circle class="cls-7" cx="443.67" cy="128.21" r="4.42"/><path class="cls-8" d="M447.43,125.89c.22,2.63-1.38,5.44-4.79,5.44a4.83,4.83,0,0,1-2.7-.76,4.42,4.42,0,0,0,8.15-2.36A4.36,4.36,0,0,0,447.43,125.89Z"/><path class="cls-8" d="M447.82,126.71c.25,2.63-1.33,5.46-4.73,5.46a5.05,5.05,0,0,1-2-.39,4.41,4.41,0,0,0,6.75-5.07Z"/><path class="cls-9" d="M443.61,125.09c.24.41-.26,1.16-1.12,1.66s-1.76.59-2,.18.26-1.15,1.12-1.66S443.37,124.68,443.61,125.09Z"/><circle class="cls-5" cx="443.67" cy="104.3" r="7.77" transform="translate(6.68 233.76) rotate(-29.73)"/><g class="cls-6"><path class="cls-7" d="M443.67,111a6.71,6.71,0,1,1,6.71-6.7A6.72,6.72,0,0,1,443.67,111Zm0-11.67a5,5,0,1,0,5,5A5,5,0,0,0,443.67,99.33Z"/></g><circle class="cls-7" cx="443.67" cy="104.3" r="4.42"/><path class="cls-8" d="M447.43,102c.22,2.63-1.38,5.44-4.79,5.44a4.83,4.83,0,0,1-2.7-.76,4.42,4.42,0,0,0,8.15-2.36A4.34,4.34,0,0,0,447.43,102Z"/><path class="cls-8" d="M447.82,102.8c.25,2.63-1.33,5.46-4.73,5.46a5.05,5.05,0,0,1-2-.39,4.41,4.41,0,0,0,6.75-5.07Z"/><path class="cls-9" d="M443.61,101.18c.24.41-.26,1.15-1.12,1.66s-1.76.59-2,.18.26-1.16,1.12-1.66S443.37,100.77,443.61,101.18Z"/><circle class="cls-5" cx="443.67" cy="80.38" r="7.77" transform="translate(283.37 501.82) rotate(-79.44)"/><g class="cls-6"><path class="cls-7" d="M443.67,87.09a6.71,6.71,0,1,1,6.71-6.71A6.72,6.72,0,0,1,443.67,87.09Zm0-11.67a5,5,0,1,0,5,5A5,5,0,0,0,443.67,75.42Z"/></g><circle class="cls-7" cx="443.67" cy="80.38" r="4.42" transform="translate(3.2 176.75) rotate(-22.61)"/><path class="cls-8" d="M447.43,78.07c.22,2.63-1.38,5.44-4.79,5.44a4.76,4.76,0,0,1-2.7-.77,4.42,4.42,0,0,0,8.15-2.36A4.33,4.33,0,0,0,447.43,78.07Z"/><path class="cls-8" d="M447.82,78.89c.25,2.63-1.33,5.46-4.73,5.46a4.88,4.88,0,0,1-2-.4,4.35,4.35,0,0,0,2.6.85,4.42,4.42,0,0,0,4.42-4.42A4.37,4.37,0,0,0,447.82,78.89Z"/><path class="cls-9" d="M443.61,77.27c.24.41-.26,1.15-1.12,1.66s-1.76.59-2,.18.26-1.16,1.12-1.67S443.37,76.86,443.61,77.27Z"/><circle class="cls-5" cx="443.67" cy="56.47" r="7.77"/><g class="cls-6"><path class="cls-7" d="M443.67,63.18a6.71,6.71,0,1,1,6.71-6.71A6.72,6.72,0,0,1,443.67,63.18Zm0-11.67a5,5,0,1,0,5,5A5,5,0,0,0,443.67,51.51Z"/></g><circle class="cls-7" cx="443.67" cy="56.47" r="4.42"/><path class="cls-8" d="M447.43,54.15c.22,2.64-1.38,5.45-4.79,5.45a4.76,4.76,0,0,1-2.7-.77,4.42,4.42,0,0,0,7.49-4.68Z"/><path class="cls-8" d="M447.82,55c.25,2.63-1.33,5.46-4.73,5.46a5.05,5.05,0,0,1-2-.4,4.35,4.35,0,0,0,2.6.85,4.42,4.42,0,0,0,4.42-4.42A4.37,4.37,0,0,0,447.82,55Z"/><path class="cls-9" d="M443.61,53.36c.24.41-.26,1.15-1.12,1.66s-1.76.59-2,.18.26-1.16,1.12-1.67S443.37,53,443.61,53.36Z"/><circle class="cls-5" cx="443.67" cy="32.56" r="7.77"/><g class="cls-6"><path class="cls-7" d="M443.67,39.27a6.71,6.71,0,1,1,6.71-6.71A6.72,6.72,0,0,1,443.67,39.27Zm0-11.67a5,5,0,1,0,5,5A5,5,0,0,0,443.67,27.6Z"/></g><circle class="cls-7" cx="443.67" cy="32.56" r="4.42"/><path class="cls-8" d="M447.43,30.24c.22,2.63-1.38,5.45-4.79,5.45a4.76,4.76,0,0,1-2.7-.77,4.42,4.42,0,0,0,7.49-4.68Z"/><path class="cls-8" d="M447.82,31.07c.25,2.62-1.33,5.46-4.73,5.46a5.05,5.05,0,0,1-2-.4,4.42,4.42,0,0,0,7-3.57A4.33,4.33,0,0,0,447.82,31.07Z"/><path class="cls-9" d="M443.61,29.44c.24.41-.26,1.16-1.12,1.67s-1.76.58-2,.17.26-1.15,1.12-1.66S443.37,29,443.61,29.44Z"/><circle class="cls-5" cx="8.96" cy="128.21" r="7.77"/><g class="cls-6"><path class="cls-7" d="M9,134.91a6.71,6.71,0,1,1,6.71-6.7A6.72,6.72,0,0,1,9,134.91Zm0-11.66a5,5,0,1,0,5,5A5,5,0,0,0,9,123.25Z"/></g><circle class="cls-7" cx="8.96" cy="128.21" r="4.42"/><path class="cls-8" d="M12.72,125.89c.22,2.63-1.38,5.44-4.79,5.44a4.83,4.83,0,0,1-2.7-.76,4.42,4.42,0,0,0,8.15-2.36A4.36,4.36,0,0,0,12.72,125.89Z"/><path class="cls-8" d="M13.11,126.71c.25,2.63-1.33,5.46-4.73,5.46a5.05,5.05,0,0,1-2-.39,4.41,4.41,0,0,0,6.75-5.07Z"/><path class="cls-9" d="M8.9,125.09c.24.41-.26,1.16-1.12,1.66s-1.76.59-2,.18.26-1.15,1.12-1.66S8.66,124.68,8.9,125.09Z"/><circle class="cls-5" cx="8.96" cy="104.3" r="7.77" transform="translate(-94.6 89.05) rotate(-76.72)"/><g class="cls-6"><path class="cls-7" d="M9,111a6.71,6.71,0,1,1,6.71-6.7A6.72,6.72,0,0,1,9,111ZM9,99.33a5,5,0,1,0,5,5A5,5,0,0,0,9,99.33Z"/></g><circle class="cls-7" cx="8.96" cy="104.3" r="4.42"/><path class="cls-8" d="M12.72,102c.22,2.63-1.38,5.44-4.79,5.44a4.83,4.83,0,0,1-2.7-.76,4.42,4.42,0,0,0,8.15-2.36A4.34,4.34,0,0,0,12.72,102Z"/><path class="cls-8" d="M13.11,102.8c.25,2.63-1.33,5.46-4.73,5.46a5.05,5.05,0,0,1-2-.39,4.41,4.41,0,0,0,6.75-5.07Z"/><path class="cls-9" d="M8.9,101.18c.24.41-.26,1.15-1.12,1.66s-1.76.59-2,.18.26-1.16,1.12-1.66S8.66,100.77,8.9,101.18Z"/><circle class="cls-5" cx="8.96" cy="80.38" r="7.77" transform="translate(-54.22 29.88) rotate(-45)"/><g class="cls-6"><path class="cls-7" d="M9,87.09a6.71,6.71,0,1,1,6.71-6.71A6.72,6.72,0,0,1,9,87.09ZM9,75.42a5,5,0,1,0,5,5A5,5,0,0,0,9,75.42Z"/></g><circle class="cls-7" cx="8.96" cy="80.38" r="4.42" transform="translate(-54.22 29.88) rotate(-45)"/><path class="cls-8" d="M12.72,78.07c.22,2.63-1.38,5.44-4.79,5.44a4.76,4.76,0,0,1-2.7-.77,4.42,4.42,0,0,0,8.15-2.36A4.33,4.33,0,0,0,12.72,78.07Z"/><path class="cls-8" d="M13.11,78.89c.25,2.63-1.33,5.46-4.73,5.46a4.88,4.88,0,0,1-2-.4A4.35,4.35,0,0,0,9,84.8a4.42,4.42,0,0,0,4.42-4.42A4.37,4.37,0,0,0,13.11,78.89Z"/><path class="cls-9" d="M8.9,77.27c.24.41-.26,1.15-1.12,1.66s-1.76.59-2,.18S6,78,6.9,77.44,8.66,76.86,8.9,77.27Z"/><circle class="cls-5" cx="8.96" cy="56.47" r="7.77"/><g class="cls-6"><path class="cls-7" d="M9,63.18a6.71,6.71,0,1,1,6.71-6.71A6.72,6.72,0,0,1,9,63.18ZM9,51.51a5,5,0,1,0,5,5A5,5,0,0,0,9,51.51Z"/></g><circle class="cls-7" cx="8.96" cy="56.47" r="4.42"/><path class="cls-8" d="M12.72,54.15c.22,2.64-1.38,5.45-4.79,5.45a4.76,4.76,0,0,1-2.7-.77,4.42,4.42,0,0,0,7.49-4.68Z"/><path class="cls-8" d="M13.11,55c.25,2.63-1.33,5.46-4.73,5.46a5.05,5.05,0,0,1-2-.4,4.35,4.35,0,0,0,2.6.85,4.42,4.42,0,0,0,4.42-4.42A4.37,4.37,0,0,0,13.11,55Z"/><path class="cls-9" d="M8.9,53.36c.24.41-.26,1.15-1.12,1.66s-1.76.59-2,.18S6,54,6.9,53.53,8.66,53,8.9,53.36Z"/><circle class="cls-5" cx="8.96" cy="32.56" r="7.77"/><g class="cls-6"><path class="cls-7" d="M9,39.27a6.71,6.71,0,1,1,6.71-6.71A6.72,6.72,0,0,1,9,39.27ZM9,27.6a5,5,0,1,0,5,5A5,5,0,0,0,9,27.6Z"/></g><circle class="cls-7" cx="8.96" cy="32.56" r="4.42"/><path class="cls-8" d="M12.72,30.24c.22,2.63-1.38,5.45-4.79,5.45a4.76,4.76,0,0,1-2.7-.77,4.42,4.42,0,0,0,7.49-4.68Z"/><path class="cls-8" d="M13.11,31.07c.25,2.62-1.33,5.46-4.73,5.46a5.05,5.05,0,0,1-2-.4,4.42,4.42,0,0,0,7-3.57A4.33,4.33,0,0,0,13.11,31.07Z"/><path class="cls-9" d="M8.9,29.44c.24.41-.26,1.16-1.12,1.67s-1.76.58-2,.17S6,30.13,6.9,29.62,8.66,29,8.9,29.44Z"/><path class="cls-10" d="M56.46,49.15c-.62,2-1.78,3.26-4.6,3.26-3.21,0-5.16-2.19-5.84-7.26h9.59V41.52H45.75c0-.39,0-.78,0-1.19s0-1,0-1.46h9.86V35.2H46.07c.78-5.12,2.86-6.52,5.56-6.52,2.95,0,4,1.28,4.39,3.16h8C63.56,27,59.63,23.3,51.84,23.3c-7.05,0-12.39,3.65-13.92,11.9h-4v3.67h3.63c0,.5,0,1,0,1.52s0,.76,0,1.13H33.88v3.63h3.89c1.14,8.51,5.62,12.65,13.6,12.65,7.22,0,11.76-2.81,12.95-8.65Z"/><path class="cls-10" d="M115.52,49.15c-.62,2-1.79,3.26-4.6,3.26-3.22,0-5.16-2.19-5.85-7.26h9.59V41.52H104.8c0-.39,0-.78,0-1.19s0-1,0-1.46h9.85V35.2h-9.54c.78-5.12,2.87-6.52,5.56-6.52,3,0,4,1.28,4.39,3.16h8c-.43-4.87-4.36-8.54-12.15-8.54-7,0-12.38,3.65-13.91,11.9h-4v3.67h3.63c0,.5,0,1,0,1.52s0,.76,0,1.13H92.93v3.63h3.89c1.15,8.51,5.62,12.65,13.6,12.65,7.22,0,11.76-2.81,13-8.65Z"/><path class="cls-10" d="M174.57,49.15c-.62,2-1.78,3.26-4.6,3.26-3.21,0-5.16-2.19-5.84-7.26h9.59V41.52h-9.86c0-.39,0-.78,0-1.19s0-1,0-1.46h9.86V35.2h-9.54c.78-5.12,2.86-6.52,5.56-6.52,2.95,0,4,1.28,4.39,3.16h8C181.67,27,177.74,23.3,170,23.3c-7,0-12.39,3.65-13.92,11.9h-4v3.67h3.63c0,.5-.05,1-.05,1.52s0,.76,0,1.13H152v3.63h3.89c1.14,8.51,5.62,12.65,13.6,12.65,7.22,0,11.76-2.81,13-8.65Z"/><path class="cls-10" d="M233.63,49.15c-.62,2-1.79,3.26-4.6,3.26-3.22,0-5.16-2.19-5.85-7.26h9.59V41.52h-9.86c0-.39,0-.78,0-1.19s0-1,0-1.46h9.85V35.2h-9.54c.78-5.12,2.87-6.52,5.56-6.52,3,0,4,1.28,4.39,3.16h8C240.72,27,236.79,23.3,229,23.3c-7.05,0-12.38,3.65-13.92,11.9h-4v3.67h3.63c0,.5,0,1,0,1.52s0,.76,0,1.13H211v3.63h3.89c1.15,8.51,5.62,12.65,13.6,12.65,7.22,0,11.76-2.81,12.95-8.65Z"/><path class="cls-10" d="M292.68,49.15c-.62,2-1.78,3.26-4.6,3.26-3.21,0-5.16-2.19-5.84-7.26h9.59V41.52H282c0-.39,0-.78,0-1.19s0-1,0-1.46h9.86V35.2h-9.54c.78-5.12,2.86-6.52,5.56-6.52,2.95,0,4,1.28,4.39,3.16h8c-.42-4.87-4.35-8.54-12.14-8.54-7.05,0-12.39,3.65-13.92,11.9h-4v3.67h3.63c0,.5-.05,1-.05,1.52s0,.76,0,1.13H270.1v3.63H274c1.14,8.51,5.62,12.65,13.6,12.65,7.22,0,11.76-2.81,13-8.65Z"/><path class="cls-10" d="M351.74,49.15c-.62,2-1.79,3.26-4.6,3.26-3.22,0-5.16-2.19-5.85-7.26h9.59V41.52H341c0-.39,0-.78,0-1.19s0-1,0-1.46h9.85V35.2h-9.54c.78-5.12,2.87-6.52,5.56-6.52,3,0,4,1.28,4.39,3.16h8c-.43-4.87-4.36-8.54-12.15-8.54-7.05,0-12.39,3.65-13.92,11.9h-4v3.67h3.63c0,.5,0,1,0,1.52s0,.76,0,1.13h-3.61v3.63H333c1.14,8.51,5.62,12.65,13.6,12.65,7.22,0,11.76-2.81,12.95-8.65Z"/><path class="cls-10" d="M410.79,49.15c-.62,2-1.78,3.26-4.6,3.26-3.22,0-5.16-2.19-5.84-7.26h9.59V41.52h-9.86c0-.39,0-.78,0-1.19s0-1,0-1.46h9.86V35.2H400.4c.78-5.12,2.86-6.52,5.56-6.52,3,0,4,1.28,4.39,3.16h8C417.89,27,414,23.3,406.17,23.3c-7.05,0-12.39,3.65-13.92,11.9h-4v3.67h3.63c0,.5,0,1,0,1.52s0,.76,0,1.13h-3.61v3.63h3.89c1.14,8.51,5.62,12.65,13.6,12.65,7.22,0,11.76-2.81,12.95-8.65Z"/><path class="cls-10" d="M56.46,129.43c-.62,2-1.78,3.26-4.6,3.26-3.21,0-5.16-2.19-5.84-7.27h9.59V121.8H45.75c0-.39,0-.78,0-1.19s0-1,0-1.46h9.86v-3.67H46.07c.78-5.12,2.86-6.52,5.56-6.52,2.95,0,4,1.27,4.39,3.16h8c-.42-4.87-4.35-8.54-12.14-8.54-7.05,0-12.39,3.65-13.92,11.9h-4v3.67h3.63c0,.5,0,1,0,1.52s0,.75,0,1.13H33.88v3.62h3.89c1.14,8.52,5.62,12.66,13.6,12.66,7.22,0,11.76-2.81,12.95-8.65Z"/><path class="cls-10" d="M115.52,129.43c-.62,2-1.79,3.26-4.6,3.26-3.22,0-5.16-2.19-5.85-7.27h9.59V121.8H104.8c0-.39,0-.78,0-1.19s0-1,0-1.46h9.85v-3.67h-9.54c.78-5.12,2.87-6.52,5.56-6.52,3,0,4,1.27,4.39,3.16h8c-.43-4.87-4.36-8.54-12.15-8.54-7,0-12.38,3.65-13.91,11.9h-4v3.67h3.63c0,.5,0,1,0,1.52s0,.75,0,1.13H92.93v3.62h3.89c1.15,8.52,5.62,12.66,13.6,12.66,7.22,0,11.76-2.81,13-8.65Z"/><path class="cls-10" d="M174.57,129.43c-.62,2-1.78,3.26-4.6,3.26-3.21,0-5.16-2.19-5.84-7.27h9.59V121.8h-9.86c0-.39,0-.78,0-1.19s0-1,0-1.46h9.86v-3.67h-9.54c.78-5.12,2.86-6.52,5.56-6.52,2.95,0,4,1.27,4.39,3.16h8c-.42-4.87-4.35-8.54-12.14-8.54-7,0-12.39,3.65-13.92,11.9h-4v3.67h3.63c0,.5-.05,1-.05,1.52s0,.75,0,1.13H152v3.62h3.89c1.14,8.52,5.62,12.66,13.6,12.66,7.22,0,11.76-2.81,13-8.65Z"/><path class="cls-10" d="M233.63,129.43c-.62,2-1.79,3.26-4.6,3.26-3.22,0-5.16-2.19-5.85-7.27h9.59V121.8h-9.86c0-.39,0-.78,0-1.19s0-1,0-1.46h9.85v-3.67h-9.54c.78-5.12,2.87-6.52,5.56-6.52,3,0,4,1.27,4.39,3.16h8c-.43-4.87-4.36-8.54-12.15-8.54-7.05,0-12.38,3.65-13.92,11.9h-4v3.67h3.63c0,.5,0,1,0,1.52s0,.75,0,1.13H211v3.62h3.89c1.15,8.52,5.62,12.66,13.6,12.66,7.22,0,11.76-2.81,12.95-8.65Z"/><path class="cls-10" d="M292.68,129.43c-.62,2-1.78,3.26-4.6,3.26-3.21,0-5.16-2.19-5.84-7.27h9.59V121.8H282c0-.39,0-.78,0-1.19s0-1,0-1.46h9.86v-3.67h-9.54c.78-5.12,2.86-6.52,5.56-6.52,2.95,0,4,1.27,4.39,3.16h8c-.42-4.87-4.35-8.54-12.14-8.54-7.05,0-12.39,3.65-13.92,11.9h-4v3.67h3.63c0,.5-.05,1-.05,1.52s0,.75,0,1.13H270.1v3.62H274c1.14,8.52,5.62,12.66,13.6,12.66,7.22,0,11.76-2.81,13-8.65Z"/><path class="cls-10" d="M351.74,129.43c-.62,2-1.79,3.26-4.6,3.26-3.22,0-5.16-2.19-5.85-7.27h9.59V121.8H341c0-.39,0-.78,0-1.19s0-1,0-1.46h9.85v-3.67h-9.54c.78-5.12,2.87-6.52,5.56-6.52,3,0,4,1.27,4.39,3.16h8c-.43-4.87-4.36-8.54-12.15-8.54-7.05,0-12.39,3.65-13.92,11.9h-4v3.67h3.63c0,.5,0,1,0,1.52s0,.75,0,1.13h-3.61v3.62H333c1.14,8.52,5.62,12.66,13.6,12.66,7.22,0,11.76-2.81,12.95-8.65Z"/><path class="cls-10" d="M410.79,129.43c-.62,2-1.78,3.26-4.6,3.26-3.22,0-5.16-2.19-5.84-7.27h9.59V121.8h-9.86c0-.39,0-.78,0-1.19s0-1,0-1.46h9.86v-3.67H400.4c.78-5.12,2.86-6.52,5.56-6.52,3,0,4,1.27,4.39,3.16h8c-.42-4.87-4.35-8.54-12.14-8.54-7.05,0-12.39,3.65-13.92,11.9h-4v3.67h3.63c0,.5,0,1,0,1.52s0,.75,0,1.13h-3.61v3.62h3.89c1.14,8.52,5.62,12.66,13.6,12.66,7.22,0,11.76-2.81,12.95-8.65Z"/><path class="cls-10" d="M91.07,83.76c-.62,2-1.79,3.25-4.61,3.25-3.21,0-5.15-2.18-5.84-7.26h9.59V76.13H80.35c0-.39,0-.78,0-1.2s0-1,0-1.45h9.85V69.81H80.67c.78-5.12,2.86-6.52,5.56-6.52,3,0,4,1.27,4.39,3.16h8c-.43-4.88-4.36-8.54-12.15-8.54-7,0-12.39,3.65-13.92,11.9h-4v3.67h3.63c0,.5,0,1,0,1.52,0,.38,0,.75,0,1.13H68.48v3.62h3.89C73.51,88.26,78,92.4,86,92.4c7.22,0,11.76-2.81,13-8.64Z"/><path class="cls-10" d="M150.12,83.76c-.62,2-1.78,3.25-4.6,3.25-3.22,0-5.16-2.18-5.85-7.26h9.6V76.13h-9.86c0-.39,0-.78,0-1.2s0-1,0-1.45h9.86V69.81h-9.55c.78-5.12,2.87-6.52,5.57-6.52,3,0,4,1.27,4.39,3.16h8c-.43-4.88-4.35-8.54-12.15-8.54-7,0-12.38,3.65-13.91,11.9h-4v3.67h3.63c0,.5,0,1,0,1.52,0,.38,0,.75,0,1.13h-3.61v3.62h3.88c1.15,8.51,5.63,12.65,13.61,12.65,7.22,0,11.76-2.81,12.95-8.64Z"/><path class="cls-10" d="M209.18,83.76c-.62,2-1.79,3.25-4.61,3.25-3.21,0-5.15-2.18-5.84-7.26h9.59V76.13h-9.86c0-.39,0-.78,0-1.2s0-1,0-1.45h9.85V69.81h-9.54c.78-5.12,2.86-6.52,5.56-6.52,2.95,0,4,1.27,4.39,3.16h8c-.43-4.88-4.36-8.54-12.15-8.54-7.05,0-12.39,3.65-13.92,11.9h-4v3.67h3.63c0,.5-.05,1-.05,1.52,0,.38,0,.75,0,1.13h-3.61v3.62h3.89c1.14,8.51,5.62,12.65,13.6,12.65,7.22,0,11.76-2.81,12.95-8.64Z"/><path class="cls-10" d="M268.23,83.76c-.62,2-1.78,3.25-4.6,3.25-3.22,0-5.16-2.18-5.85-7.26h9.6V76.13h-9.86c0-.39,0-.78,0-1.2s0-1,0-1.45h9.86V69.81h-9.55c.78-5.12,2.87-6.52,5.56-6.52,3,0,4,1.27,4.39,3.16h8c-.43-4.88-4.35-8.54-12.15-8.54-7,0-12.38,3.65-13.91,11.9h-4v3.67h3.63c0,.5-.05,1-.05,1.52,0,.38,0,.75,0,1.13h-3.61v3.62h3.88c1.15,8.51,5.63,12.65,13.61,12.65,7.22,0,11.76-2.81,12.95-8.64Z"/><path class="cls-10" d="M327.29,83.76c-.62,2-1.79,3.25-4.61,3.25-3.21,0-5.15-2.18-5.84-7.26h9.59V76.13h-9.86c0-.39,0-.78,0-1.2s0-1,0-1.45h9.85V69.81h-9.54c.78-5.12,2.86-6.52,5.56-6.52,2.95,0,4,1.27,4.39,3.16h8c-.42-4.88-4.35-8.54-12.14-8.54-7.05,0-12.39,3.65-13.92,11.9h-4v3.67h3.63c0,.5-.05,1-.05,1.52,0,.38,0,.75,0,1.13H304.7v3.62h3.89c1.14,8.51,5.62,12.65,13.6,12.65,7.22,0,11.76-2.81,12.95-8.64Z"/><path class="cls-10" d="M386.34,83.76c-.62,2-1.78,3.25-4.6,3.25-3.22,0-5.16-2.18-5.85-7.26h9.6V76.13h-9.86c0-.39,0-.78,0-1.2s0-1,0-1.45h9.86V69.81h-9.55c.78-5.12,2.87-6.52,5.56-6.52,3,0,4,1.27,4.39,3.16h8c-.43-4.88-4.35-8.54-12.15-8.54-7,0-12.38,3.65-13.91,11.9h-4v3.67h3.63c0,.5-.05,1-.05,1.52,0,.38,0,.75,0,1.13h-3.61v3.62h3.88c1.15,8.51,5.63,12.65,13.61,12.65,7.22,0,11.76-2.81,12.95-8.64Z"/><path class="cls-11" d="M96,81.19V44a43.1,43.1,0,0,1-4.86-.59V34.29a13.4,13.4,0,0,0,9-4h10V81.19Z"/><path class="cls-11" d="M114.41,81.19v-.7c0-10.5,3.92-16.51,12.31-24.63,5.6-5.46,7.28-7.15,7.28-11.8,0-2.81-.62-4.9-3.26-4.9-2.84,0-3.67,2.41-3.82,7.61H114.13c.15-7.82,2.93-17.28,17.33-17.28,11.73,0,16.64,6.52,16.64,15.18,0,6.33-1.85,9.92-9.37,16.56-4.21,3.84-6.81,6.66-7.82,9.18H149.2l-1.63,10.78Z"/><path class="cls-11" d="M180.32,65.46c.31,4.34,1.87,6.73,5.39,6.73s4.53-1.89,4.53-4.55c0-3.34-1.89-5.14-8.32-7.8-10.92-4.38-14.48-9-14.48-16.37,0-9.89,6.89-15.68,18-15.68,12.56,0,18,6.76,18.27,16.2h-13.7c-.2-3.63-1.15-6.19-4.52-6.19-2.54,0-3.85,1.42-3.85,4,0,2.79,1.44,4.06,7.5,6.53C200.82,53,204.77,57.5,204.77,66c0,9.8-6.52,16.27-19.21,16.27-13.34,0-18.86-6.89-19.23-16.78Z"/><path class="cls-11" d="M217.66,39.87H206.38v-11h37v11H232.16V81.19h-14.5Z"/><path class="cls-11" d="M279.47,59.8h-18V70.26h20.25l-1.62,10.93H247.43V28.85h32.8v11H261.52v8.92h18Z"/><path class="cls-11" d="M284.76,28.85h20c10,0,17.48,5.28,17.48,16.28,0,11.42-6.88,16.73-18.06,16.73h-5.13V81.19H284.76ZM299.07,51.4h3.27c3.91,0,5.44-1.89,5.44-6.34s-1.9-6-5.35-6h-3.36Z"/><path class="cls-11" d="M337.87,65.46c.31,4.34,1.87,6.73,5.39,6.73s4.53-1.89,4.53-4.55c0-3.34-1.89-5.14-8.31-7.8-10.93-4.38-14.49-9-14.49-16.37,0-9.89,6.9-15.68,18-15.68,12.56,0,18,6.76,18.27,16.2H347.6c-.2-3.63-1.15-6.19-4.52-6.19-2.54,0-3.85,1.42-3.85,4,0,2.79,1.44,4.06,7.5,6.53C358.37,53,362.32,57.5,362.32,66c0,9.8-6.52,16.27-19.2,16.27-13.34,0-18.87-6.89-19.24-16.78Z"/><path class="cls-12" d="M94,79.19V42a43.1,43.1,0,0,1-4.86-.59V32.29a13.4,13.4,0,0,0,9-4h10V79.19Z"/><path class="cls-12" d="M112.41,79.19v-.7c0-10.5,3.92-16.51,12.31-24.63,5.6-5.46,7.28-7.15,7.28-11.8,0-2.81-.62-4.9-3.26-4.9-2.84,0-3.67,2.41-3.82,7.61H112.13c.15-7.82,2.93-17.28,17.33-17.28,11.73,0,16.64,6.52,16.64,15.18,0,6.33-1.85,9.92-9.37,16.56-4.21,3.84-6.81,6.66-7.82,9.18H147.2l-1.63,10.78Z"/><path class="cls-12" d="M178.32,63.46c.31,4.34,1.87,6.73,5.39,6.73s4.53-1.89,4.53-4.55c0-3.34-1.89-5.14-8.32-7.8-10.92-4.38-14.48-9-14.48-16.37,0-9.89,6.89-15.68,18-15.68,12.56,0,18,6.76,18.27,16.2h-13.7c-.2-3.63-1.15-6.19-4.52-6.19-2.54,0-3.85,1.42-3.85,4,0,2.79,1.44,4.06,7.5,6.53C198.82,51,202.77,55.5,202.77,64c0,9.8-6.52,16.27-19.21,16.27-13.34,0-18.86-6.89-19.23-16.78Z"/><path class="cls-12" d="M215.66,37.87H204.38v-11h37v11H230.16V79.19h-14.5Z"/><path class="cls-12" d="M277.47,57.8h-18V68.26h20.25l-1.62,10.93H245.43V26.85h32.8v11H259.52v8.92h18Z"/><path class="cls-12" d="M282.76,26.85h20c10,0,17.48,5.28,17.48,16.28,0,11.42-6.88,16.73-18.06,16.73h-5.13V79.19H282.76ZM297.07,49.4h3.27c3.91,0,5.44-1.89,5.44-6.34s-1.9-6-5.35-6h-3.36Z"/><path class="cls-12" d="M335.87,63.46c.31,4.34,1.87,6.73,5.39,6.73s4.53-1.89,4.53-4.55c0-3.34-1.89-5.14-8.31-7.8-10.93-4.38-14.49-9-14.49-16.37,0-9.89,6.9-15.68,18-15.68,12.56,0,18,6.76,18.27,16.2H345.6c-.2-3.63-1.15-6.19-4.52-6.19-2.54,0-3.85,1.42-3.85,4,0,2.79,1.44,4.06,7.5,6.53C356.37,51,360.32,55.5,360.32,64c0,9.8-6.52,16.27-19.2,16.27-13.34,0-18.87-6.89-19.24-16.78Z"/><path class="cls-11" d="M70.45,105.06H62.16V97.58H88.93v7.48H80.72v26.07H70.45Z"/><path class="cls-11" d="M121.06,114.15c0,10.11-4.45,17.7-16.15,17.7-10.85,0-15.49-7.48-15.49-17.7,0-9.35,4.71-17.27,16-17.27C116.35,96.88,121.06,104.73,121.06,114.15Zm-20.91-.08c0,6.64,1.38,10.52,5.13,10.52,4,0,5.07-3.6,5.07-10.58,0-6.19-1.06-9.84-5.15-9.84C101.44,104.17,100.15,107.64,100.15,114.07Z"/><path class="cls-11" d="M177.56,123c0-7,.13-17.17.33-22.93h-.44c-1.56,10.31-4.18,25.6-6.58,37H159.61c-2-11.94-4.37-26.18-5.84-36.94h-.49c.32,5.52.57,14.86.57,23v13.94H141.11V89.89h20.38c1.5,7.38,3.62,21,4.37,27.57h.34c1.1-7.95,3.21-18.28,5.24-27.57h19.92v47.24h-13.8Z"/><path class="cls-11" d="M212.45,89.89v47.24H198V89.89Z"/><path class="cls-11" d="M218.86,89.89h14.47v36.63h19l-1.44,10.61H218.86Z"/><path class="cls-11" d="M256.19,89.89h14.47v36.63h19l-1.43,10.61H256.19Z"/><path class="cls-11" d="M308,89.89v47.24H293.5V89.89Z"/><path class="cls-11" d="M357.6,113.23c0,14.22-6.26,24.91-22.72,24.91-15.29,0-21.81-10.52-21.81-24.92,0-13.17,6.63-24.31,22.55-24.31C351,88.91,357.6,100,357.6,113.23Zm-29.43-.13c0,9.36,1.94,14.82,7.23,14.82,5.58,0,7.13-5.06,7.13-14.9,0-8.7-1.49-13.85-7.25-13.85C330,99.17,328.17,104.05,328.17,113.1Z"/><path class="cls-11" d="M362.88,137.13V89.89h17c7.87,21.34,9.76,27.24,10.24,29.05h.3c-.48-5.62-.71-14-.71-21v-8h13.24v47.24H386.5c-8.66-24.1-10.11-28.56-10.68-30.37h-.2c.46,5.9.47,14.08.47,22v8.34Z"/><path class="cls-12" d="M68.45,103.06H60.16V95.58H86.93v7.48H78.72v26.07H68.45Z"/><path class="cls-12" d="M119.06,112.15c0,10.11-4.45,17.7-16.15,17.7-10.85,0-15.49-7.48-15.49-17.7,0-9.35,4.71-17.27,16-17.27C114.35,94.88,119.06,102.73,119.06,112.15Zm-20.91-.08c0,6.64,1.38,10.52,5.13,10.52,4,0,5.07-3.6,5.07-10.58,0-6.19-1.06-9.84-5.15-9.84C99.44,102.17,98.15,105.64,98.15,112.07Z"/><path class="cls-12" d="M175.56,121c0-7,.13-17.17.33-22.93h-.44c-1.56,10.31-4.18,25.6-6.58,37H157.61c-2-11.94-4.37-26.18-5.84-36.94h-.49c.32,5.52.57,14.86.57,23v13.94H139.11V87.89h20.38c1.5,7.38,3.62,21,4.37,27.57h.34c1.1-7.95,3.21-18.28,5.24-27.57h19.92v47.24h-13.8Z"/><path class="cls-12" d="M210.45,87.89v47.24H196V87.89Z"/><path class="cls-12" d="M216.86,87.89h14.47v36.63h19l-1.44,10.61H216.86Z"/><path class="cls-12" d="M254.19,87.89h14.47v36.63h19l-1.43,10.61H254.19Z"/><path class="cls-12" d="M306,87.89v47.24H291.5V87.89Z"/><path class="cls-12" d="M355.6,111.23c0,14.22-6.26,24.91-22.72,24.91-15.29,0-21.81-10.52-21.81-24.92,0-13.17,6.63-24.31,22.55-24.31C349,86.91,355.6,98,355.6,111.23Zm-29.43-.13c0,9.36,1.94,14.82,7.23,14.82,5.58,0,7.13-5.06,7.13-14.9,0-8.7-1.49-13.85-7.25-13.85C328,97.17,326.17,102.05,326.17,111.1Z"/><path class="cls-12" d="M360.88,135.13V87.89h17c7.87,21.34,9.76,27.24,10.24,29.05h.3c-.48-5.62-.71-14-.71-21v-8h13.24v47.24H384.5c-8.66-24.1-10.11-28.56-10.68-30.37h-.2c.46,5.9.47,14.08.47,22v8.34Z"/></g></g></g></svg>