<svg xmlns="http://www.w3.org/2000/svg" viewBox="0 0 375.6 400"><defs><style>.cls-1{isolation:isolate;}.cls-2{fill:#393e5c;}.cls-17,.cls-3{fill:#ddedf2;}.cls-3,.cls-8{opacity:0.1;}.cls-15,.cls-4,.cls-7{fill:#1d262d;}.cls-21,.cls-4{opacity:0.15;}.cls-21,.cls-4,.cls-7{mix-blend-mode:multiply;}.cls-5{fill:#ba0035;}.cls-6{fill:#f9194f;}.cls-7{opacity:0.2;}.cls-27,.cls-8{fill:#fdf9fe;}.cls-9{fill:#5997aa;}.cls-10{fill:#ffb190;}.cls-11{fill:#7db5c6;}.cls-12{fill:#387887;}.cls-13{fill:#509bb2;}.cls-14{fill:#62b2c4;}.cls-16{fill:#acd9ea;}.cls-18{fill:#ea8383;}.cls-19{fill:#e59117;}.cls-20{fill:#ffc833;}.cls-22{fill:#fff087;}.cls-23{fill:#fdab1f;}.cls-24{fill:#ee6461;}.cls-25{fill:#995425;}.cls-26{fill:#af6635;}.cls-28{fill:#ff4060;}.cls-29{fill:#4de867;}.cls-30{fill:#f748e7;}</style></defs><g class="cls-1"><g id="Layer_2" data-name="Layer 2"><g id="OBJECT"><circle class="cls-2" cx="191.69" cy="183.92" r="183.92"/><circle class="cls-3" cx="191.69" cy="183.92" r="113.35"/><circle class="cls-3" cx="191.69" cy="183.92" r="71.58"/><path class="cls-3" d="M191.69,275.54a91.63,91.63,0,1,1,91.62-91.62A91.73,91.73,0,0,1,191.69,275.54Zm0-175.3a83.68,83.68,0,1,0,83.67,83.68A83.78,83.78,0,0,0,191.69,100.24Z"/><path class="cls-2" d="M267.32,101.16c-4.38-3.25-9.19-2.48-13.15-.47h0c-.35.17-.69.36-1,.55h0c-.4.24-.8.49-1.18.75a1.23,1.23,0,0,1,0-.19.88.88,0,0,1,0-.17c0-.19,0-.36-.06-.53l0-.19c0-.15,0-.29-.05-.42l0-.18c0-.11,0-.21,0-.3s0-.12,0-.17,0-.14,0-.19,0-.1,0-.14l0-.08a.45.45,0,0,1,0-.08h0a1.47,1.47,0,0,0-.08-.28l-.05-.08a1.74,1.74,0,0,0-.11-.18l-.08-.1-.14-.15-.11-.1-.18-.14-.14-.08-.22-.14-.16-.08-.28-.12-.16-.07-.35-.13-.15,0-.53-.16h0a13.54,13.54,0,0,0-1.34-.29l-.12,0-.61-.1-.18,0L246,97l-.2,0-.65-.06-.21,0-.71,0H244l-.81,0h-.13l-1.72,0-.08,0-.63-.37-.2-.12c-.24-.13-.48-.26-.74-.38l-.1-.06-.92-.42-.24-.1-.78-.31-.29-.11-1.11-.37a12.76,12.76,0,0,1-5.84-3.61l7.16,2.44-4.39-13,8.22-11-13.73.16-7.91-11.21-4.08,13.1-12.85,4A14.06,14.06,0,0,0,199,70.25s3.36-8.66-.37-12.68a10.4,10.4,0,0,0-5.75,8.66S191.65,53.39,185,50c0,0-3.48,3.83-1.15,10,0,0-6-5.95-10.88-5.82,0,0-1.72,3.48,3,8.62,0,0-6-2.06-9.15.79,0,0-.48,1.71,2.25,3.37,0,0-3.48.71-2.29,2.68,1,1.61.73,5.52.6,6.89a7.09,7.09,0,1,0-6.68,12.49,9.53,9.53,0,0,0,.93.42A14.41,14.41,0,0,0,165,105.21h0l-.26,3.05h0l-.37,4.37-.16,0a.18.18,0,0,0,0-.07c-.37-3.17-2-5.6-6.06-5.61a3.54,3.54,0,0,0-2,.16,3.78,3.78,0,0,0-1.48,1.2c-23.38-20-5.33-55.17-5.33-55.17s7-13,16.79-18.34a14,14,0,0,0,5.56,2.05c3.83.71,10.15-1.07,10.15-1.07V33c2.28-1,4.38-2.07,4.24-2.73-.31-1.43-1.45-4.63-1.45-4.63l-2.87-.54c-3.74-6.94-10-5-13.79-1.6a49.44,49.44,0,0,0-5.63,5.7,49.57,49.57,0,0,0-20,13.94,8.31,8.31,0,0,0-5-1.56h0c-7,10.89-10.73,20.92-12.25,30q-.15.9-.27,1.8c-.25,1.79-.41,3.53-.5,5.24l-.06,1.7c0,.56,0,1.12,0,1.67s0,1.1,0,1.64a57.18,57.18,0,0,0,.56,6.3c.14,1,.31,2,.51,3,.09.49.19,1,.3,1.45.32,1.44.69,2.83,1.09,4.19a66.63,66.63,0,0,0,2.8,7.59c.35.79.7,1.55,1.06,2.3,4.32,9,9.5,15,11,17.82,2.1,3.92,5.14,13.45,7.61,22.16.14.49.27,1,.41,1.45v0l.39,1.4,0,.07c.12.44.24.88.35,1.31l0,.15c.11.41.22.82.33,1.21l0,.21q.17.58.3,1.14l.06.22c.09.36.19.71.27,1.06l.08.28.24.94a3,3,0,0,0,.08.32l.21.86c0,.12.05.23.08.34s.13.5.18.75.07.26.1.39.1.43.15.63l.09.4.12.55.09.4c0,.15.07.3.1.44s.05.26.07.38.06.26.08.37.05.24.07.35a2.5,2.5,0,0,0,.05.29c0,.12,0,.23,0,.33a1.35,1.35,0,0,1,0,.18c0,.15,0,.28.05.39s0,.51,0,.76a1.62,1.62,0,0,0,0,.22c0,.18,0,.35,0,.52l0,.22c0,.2-.06.39-.1.58,0,0,0,.06,0,.09,0,.22-.1.43-.16.63l-.06.17c0,.15-.09.29-.14.43l-.06.16c-.07.16-.13.32-.2.47l0,0a8.5,8.5,0,0,1-.48.92h0a8.91,8.91,0,0,1-.57.86,35.9,35.9,0,0,0,3.5,3.19q1.22,1,2.49,1.8l.43.28h0v0l0,0a.57.57,0,0,1-.07.12l-.05.08c0,.07-.08.15-.14.24l0,0a67,67,0,0,0-5.09,12l0,.1c-.18.53-.35,1.08-.53,1.65h0q-.88,2.88-1.71,6.31c-.29,1.26-.58,2.57-.85,3.94-.32,1.64-.62,3.35-.88,5.14,0,.31-.1.62-.14.94-.29,2.06-.54,4.2-.74,6.45-.31,3.61-.48,7.47-.47,11.58,0,1.37,0,2.76.08,4.18a162.92,162.92,0,0,0,6.39,39.17,97.76,97.76,0,0,1,2.5,10.14q.12.62.24,1.26c.08.48.17,1,.25,1.47.12.76.24,1.54.34,2.33,0,.1,0,.21,0,.31a46.86,46.86,0,0,1,.21,11.86c0,.12,0,.23-.05.34a17.64,17.64,0,0,1-1.62,5.42,10.51,10.51,0,0,0,2.41,2.39l.63.45a22.42,22.42,0,0,0,2.12,1.27l.76.4a42.45,42.45,0,0,0,4.94,2.07h0a14,14,0,0,1,3.34,3c.24.27.49.58.74.89.36.46.73,1,1.12,1.53.21.31.43.65.65,1,.44.7.89,1.47,1.33,2.31h0l.37.09h0l.43.07h0l.58.07h0l.7.05h1.17l-.06,0,1.78,4.52s-16.39,7.84-28.32,10.87c0,0,6.06,7.12,20,3.92s14.43-4.46,22.8-5.7l-9.1-16h-.05a17.71,17.71,0,0,0,2.91-2.31,22.6,22.6,0,0,1-.62-12.73h0a17.8,17.8,0,0,0,1.7-7.13c-9.85-6.05-10.69-16-13.89-25.29s-13.18-51.29,16.38-61.62A91.14,91.14,0,0,1,207.55,201c1.28-.23,2.55-.43,3.8-.62l.21,0c1.22-.18,2.41-.33,3.59-.47l.26,0,.53-.06a.36.36,0,0,1,0,.09c-.77,1.59-1.6,3.19-2.48,4.78l-.74,1.31c-1.26,2.18-2.62,4.34-4.09,6.4-.81,1.14-1.65,2.25-2.53,3.31a47.75,47.75,0,0,1-5.67,5.86h0A20.65,20.65,0,0,1,204.61,234a20.17,20.17,0,0,1-1.2,6.79h0a9.09,9.09,0,0,0,1.52.72h0l-4.52,16.74s10.86-4.27,25.2-8.28,18-16,18-16c-7.21,2.35-17.9,4.89-25.52,6.59l.34-.59,0-.07.51-.84.06-.1.29-.47,0-.06.56-.86.16-.24.29-.42a20.86,20.86,0,0,1,3.72-4.28,46.18,46.18,0,0,1,8.2-5s.35-17.46,7.48-28.14c5.4-8.11,9-22.56,10.36-29.07l.25-.1.31-.12.61-.27.35-.15.5-.25.34-.17.39-.23a3397298043798.66,3397298043798.66,0,0,1,.62-.4,3,3,0,0,0,.26-.21l.22-.19.21-.23.14-.16.13-.25a.75.75,0,0,1,.06-.13.91.91,0,0,0,0-.36h0a.93.93,0,0,0-.13-.31l-.07-.09a1.26,1.26,0,0,0-.2-.2l-.11-.09a3.44,3.44,0,0,0-.38-.22l-.28-.11-.23-.09-.38-.12-.15,0c-.33-.08-.69-.16-1.1-.22h0a5.1,5.1,0,0,0-.72-.23l-.06,0a8.18,8.18,0,0,0-.86-.17h0a24.35,24.35,0,0,0-3.6-.25h-.3l-1.11,0h-.4l-1.16.06-.38,0-1.6.12a8.1,8.1,0,0,0,1.88-3.59h0c0-.11,0-.19,0-.25v0a.41.41,0,0,1,0-.09l-.18-.17c-.22-.23-.65-.68-1.16-1.31l-.39-.5a20.39,20.39,0,0,1-1.7-2.61c-.13-.25-.27-.51-.4-.78a13.93,13.93,0,0,1-1.17-3.51,11.41,11.41,0,0,1-.19-2h0a18.41,18.41,0,0,1,.06-2,30.17,30.17,0,0,1,1.33-6.36l.34-.07h.05l.69-.17h0a54.75,54.75,0,0,0,21.88-11.59c5.14-4.41,10.22-12.56,10-19.62A12,12,0,0,0,267.32,101.16ZM161.76,89.08a1.89,1.89,0,0,0-.09.21,1.89,1.89,0,0,1,.09-.21L163,86.46h0Zm47.08,153.47Zm12.95-102.23c.49.34,1,.68,1.5,1-1,0-2.23,0-3.59-.1-.56,0-1.14-.08-1.75-.14C219.28,140.86,220.56,140.6,221.79,140.32Zm-36.35-21.2-.86-.6-.28-.2-.63-.44q1.05-.06,2-.06C185.6,118.25,185.51,118.68,185.44,119.12Zm-8-5.72-1.09-.81-.17.08.17-2.82h0a14,14,0,0,0,11.82-6.27l7.14-11.09a15.29,15.29,0,0,0,1-1.77,4.38,4.38,0,0,1-.45.89s4.93-3.2,7.19-6.22c1.47-2,1.52-6,0-9.68l10.77,7.63-.18,13.73,6.05-4.51a12.57,12.57,0,0,1-2.17,3.24,13.46,13.46,0,0,1-2.26,2,20.36,20.36,0,0,0-4.15,3.74c-5.68,1.87-9.21,4-8.95,5.63,0,0,0,.27.12.76s.19,1.08.35,1.86h0l-.15,0c-.32-.09-.64-.17-1-.24l-.16,0c-4.42-1-9.52-.64-13,3.47A36,36,0,0,0,177.43,113.4Zm26-.18c.46,1.61,1.06,3.46,1.85,5.46a54.31,54.31,0,0,0,2.74,5.89c-1.08,0-2.13-.11-3.15-.19a19.86,19.86,0,0,0-.7-2.88,20.31,20.31,0,0,0-12.23-8c2.74-2,6.23-1.83,9.1-1.09h0A20.37,20.37,0,0,1,203.43,113.22ZM188.31,121a8.76,8.76,0,0,1,.48-3c8.17.71,13.15,4.07,15.12,5.7a4.54,4.54,0,0,1-.24.61c-2-.2-3.82-.46-5.49-.76h0c-.64-.11-1.26-.23-1.86-.35h0A61.64,61.64,0,0,1,188.31,121Zm2.88,20.34-.38,0h0c-.08-.65-.15-1.29-.22-1.92h0l1.08.33C191.46,140.35,191.3,140.89,191.19,141.33Zm31.39,28.83c-1.84.88-2.86,1.76-2.74,2.51a1.13,1.13,0,0,0,.55.72c-11.11,2.4-20,4.39-20,4.39-3.22-4.74-5.55-12.76-7.23-21.28a7.76,7.76,0,0,0,2.8-13.23,23.27,23.27,0,0,1,.91-2.27,55.6,55.6,0,0,0,10.26,1,55.15,55.15,0,0,0,15.61,2.35c.73,0,1.38,0,1.95,0h0l.73,0h.19l.45,0h.17l.47,0h.11c1.4,2,3.84,5.84,4.3,9.42.66,5.08-2,10-2,10a7.91,7.91,0,0,0,3.06,3.16C227.64,167.7,224.12,169,222.58,170.16ZM260.43,128a53.54,53.54,0,0,1-16.06,9.51c-.91.34-1.74.62-2.48.85a41.34,41.34,0,0,0,5.14-7.83l0-.07c.28-.56.55-1.12.8-1.68l0-.09c.25-.56.5-1.13.72-1.7v0c.37-.92.7-1.84,1-2.75l.2-.12a1.06,1.06,0,0,0,.2-.17,5.6,5.6,0,0,0,2.58-1.46c2.11-2.14,2.4-11.69,2.4-11.69a19.63,19.63,0,0,0-2.85-1c.05-1.53.05-3,0-4.21a21.78,21.78,0,0,1,2.53-1.76c3.07-1.8,7.13-3,10.83-.25a9,9,0,0,1,3.82,7.24C269.57,116.84,264.92,124.19,260.43,128Zm-61.58-26a7.36,7.36,0,0,0-3.26-9.87h0l-.23.4-7.15,11.09c-.08.13-.18.25-.27.38a8.32,8.32,0,0,0,.85.56A7.37,7.37,0,0,0,198.85,102Z"/><path class="cls-4" d="M191.69,306.66c-62.06,0-112.79,8.72-116.31,19.72a184.43,184.43,0,0,0,16.52,12c20.4,6.07,57.46,10.13,99.79,10.13s79.38-4.06,99.79-10.13a184.29,184.29,0,0,0,16.51-12C304.47,315.38,253.75,306.66,191.69,306.66Z"/><path class="cls-5" d="M219.5,350.82c-9-.31-18.27-.48-27.81-.48s-18.85.17-27.82.48H60.24v20.67c0,11.69,58.85,21.16,131.45,21.16s131.44-9.47,131.44-21.16V350.82Z"/><ellipse class="cls-5" cx="191.69" cy="350.82" rx="131.45" ry="21.15"/><ellipse class="cls-6" cx="191.69" cy="350.82" rx="128.16" ry="18.79"/><path class="cls-5" d="M213.6,330.37c-7.06-.25-14.39-.38-21.91-.38s-14.85.13-21.92.38H88.13v16.29c0,9.2,46.36,16.66,103.56,16.66s103.56-7.46,103.56-16.66V330.37Z"/><ellipse class="cls-5" cx="191.69" cy="330.37" rx="103.56" ry="16.66"/><ellipse class="cls-6" cx="191.69" cy="330.37" rx="100.97" ry="14.8"/><path class="cls-7" d="M323.13,371.49V350.82c0-4.92-10.41-9.44-27.88-13v-7.42c0-6.63-24.06-12.36-58.89-15h0s46.52,19.79-16.88,31.33v16.09s-5.91,6.85-25.63,6.85v23C265.45,392.46,323.13,383.06,323.13,371.49Z"/><path class="cls-8" d="M88.13,330.37v7.42c-17.47,3.59-27.89,8.11-27.89,13v20.67c0,5.38,12.47,10.28,33,14V362.56c11.16.44,67.45,0,67.45,0C113.6,360.7,93.23,347,93.23,347V336.52c37.74,13.46,83.15,8.65,83.15,8.65s-80.2-5.36-80.2-14.8,61.61-15.75,61.61-15.75h0C117.25,316.87,88.13,323.07,88.13,330.37Z"/><path class="cls-7" d="M234.41,322.29A141.49,141.49,0,0,0,214,323.66a281.53,281.53,0,0,0-28.75-1.37c-28.11,0-50.9,3.5-50.9,7.82s22.79,7.82,50.9,7.82a272.21,272.21,0,0,0,31.27-1.65,147.5,147.5,0,0,0,17.86,1c19.58,0,35.45-3.36,35.45-7.5S254,322.29,234.41,322.29Z"/><path class="cls-9" d="M132.33,37.68s7.39-.8,12,11.49C144.35,49.17,132.06,47.56,132.33,37.68Z"/><path class="cls-10" d="M144.35,49.17s7-13,16.79-18.35l-3.79-5.52a49.23,49.23,0,0,0-24.94,20.81S140.07,50.59,144.35,49.17Z"/><path class="cls-4" d="M137,39.58a45.33,45.33,0,0,0-4.61,6.53s7.66,4.48,11.94,3.06A43.56,43.56,0,0,1,137,39.58Z"/><path class="cls-11" d="M183,116.9s25.33,9.87,49.71-2.21l1.43,15.3s-23.31,13.61-48.47,5.47Z"/><path class="cls-4" d="M191.39,119.21c.38,1,1.15,3.51.17,5.19s-4.82,5.28-6.05,10l.15,1.06c1.56.5,3.12.92,4.66,1.27,2.38-2.94,7-8.77,8.15-11.47a14.28,14.28,0,0,0,1.22-4.84A77.1,77.1,0,0,1,191.39,119.21Z"/><path class="cls-5" d="M172.51,109.46s18.06-4.19,26.74,8.1l.72,3s-7.56-8.17-23.39-6.5Z"/><path class="cls-5" d="M151.16,103.13a4.67,4.67,0,0,0-2.54,3.47,62.8,62.8,0,0,0,8.73-.3S154.63,101.8,151.16,103.13Z"/><path class="cls-12" d="M195.46,173.84s31.88-7.13,50.41-10.69c0,0-3.57,19.95-11.05,32.42,0,0-26.36-2.85-49.51,6.41l-.48-22.8Z"/><path class="cls-4" d="M217.5,195.37l1.65-21.18s-7.8,13.27-16.52,22.92A120,120,0,0,1,217.5,195.37Z"/><path class="cls-13" d="M219.15,174.19s-7.48,29.57-23.69,43.46a20.48,20.48,0,0,1,3,19.24s4.28,2.85,13.54,1.78c0,0,3.56-7.13,7.12-10a46.58,46.58,0,0,1,8.19-5s.36-17.46,7.48-28.14,11.05-32.42,11.05-32.42Z"/><path class="cls-12" d="M195.46,217.65a20.48,20.48,0,0,1,3,19.24s4.28,2.85,13.54,1.78a52.36,52.36,0,0,1,3.4-5.7,32.81,32.81,0,0,0-9.13,1.33,35.83,35.83,0,0,1-1.3-7.84c0-3.26,5.89-7.84,5.89-7.84h-9.38l4.79-2.93c11.1-14.69,12.85-41.5,12.85-41.5S211.67,203.76,195.46,217.65Z"/><path class="cls-13" d="M185.31,202s3-8.19-.48-22.8-31.92-6.48-31.92-6.48-21,33.2-4.29,92c0,0,7.25,22.8,1.9,33.13,1.81,2.66,6.37,5,10.87,6.58h0s3.62,2,7.18,8.74c0,0,6.77,1.95,13.18-4.37a22.49,22.49,0,0,1-.62-12.73h0a17.93,17.93,0,0,0,1.7-7.13c-9.85-6.05-10.69-16-13.89-25.29S155.75,212.31,185.31,202Z"/><path class="cls-14" d="M148.62,264.67s7.25,22.8,1.9,33.13c1.81,2.66,6.37,5,10.87,6.58h0s3.62,2,7.18,8.74a12.14,12.14,0,0,0,5,.06c-1.68-2.27-7.65-10.32-9.22-12.28-1.82-2.29-7-3.27-7-3.27a27.56,27.56,0,0,0,9.26-4.24c-5.74-.65-9.26-6.2-9.26-6.2,0-11.43-8.49-41.14-8.49-41.14l1.29-3.86-4.91-.27,7.67-3h-6c-7.13-31.63,6-66.21,6-66.21S131.88,205.9,148.62,264.67Z"/><path class="cls-4" d="M184.83,179.18c-3.44-14.6-31.92-6.48-31.92-6.48s-3.1,4.91-6,14.26c44.35,3.54,48.52-13.12,48.52-13.12l-10.63,5.34Z"/><path class="cls-15" d="M171.78,313.4l1.78,4.52s-16.39,7.84-28.32,10.87c0,0,6,7.12,19.95,3.92s14.42-4.46,22.79-5.7l-9.09-16Z"/><path class="cls-15" d="M203.92,238.61S226.36,234,238.65,230c0,0-3.65,12-18,16s-25.21,8.28-25.21,8.28L200,237.6Z"/><path class="cls-16" d="M144.35,49.17s-19,37.11,7.3,56.75c0,0,4.45-2.79,7.66,2.73,0,0,8.19,2.14,12.11,0,0,0,5.26,3.92,12.78,9.09,0,0,1.82,42.21,11.26,56.1,0,0-2.38,4.27-10.63,5.34s-26.41.71-38.35-11.75a9.25,9.25,0,0,0,1.87-6.06c-.26-3.47-7.74-31.52-11.75-39s-34.2-38.21-4.27-84.69A19.68,19.68,0,0,0,144.35,49.17Z"/><path class="cls-17" d="M140.56,124.4l1.59-3.7,4.63-.64-8.14-1.31s-15.23-19.24-15.83-39.91a64.18,64.18,0,0,1,9.6-35.42,19.86,19.86,0,0,0,6.23,2.69h0a19.38,19.38,0,0,1-6.31-8.42c-29.93,46.48.26,77.21,4.27,84.69s11.49,35.53,11.75,39a9,9,0,0,1-1.29,5.21C154.88,163.15,140.56,124.4,140.56,124.4Z"/><path class="cls-4" d="M195.46,173.84C186,160,184.2,117.74,184.2,117.74c-2.26-1.56-4.32-3-6.09-4.25,0,0-2.32,3.62.54,9.23s7,35,6.18,38.93a12.35,12.35,0,0,1-3.75,6.37s2.37,1.73,6.94,1c0,0-14.89,6-26.46.19a7.29,7.29,0,0,0,4.8,4.63c-4.29-1.1-16.13-4.51-16.13-8.73s-2.94-16.1-6-20.57c2.25,7.94,4,15.19,4.14,16.85a9.25,9.25,0,0,1-1.87,6.06c11.94,12.46,30.1,12.82,38.35,11.75S195.46,173.84,195.46,173.84Z"/><path class="cls-4" d="M159.31,128.35s3.8,2.78,10.46,2.78,6.81,7.73,6.81,7.73-4.28,5.7-.58,11.23,8.41,3.75,9.89,2.35S183,137,181.09,133.9s-5.32-7.47-9.89-6.59-12.73,1.87-14.52-2c-1.33-2.9-.17-13.36-.3-19.55a5.24,5.24,0,0,0-4.73.21,46.19,46.19,0,0,1-1.83,6.89C148.35,117.25,149.21,129.17,159.31,128.35Z"/><path class="cls-10" d="M157.35,25.3A49.44,49.44,0,0,1,163,19.6c3.81-3.38,10-5.34,13.78,1.6l2.87.54s1.15,3.2,1.46,4.63-9.67,4.81-9.67,4.81l-10.28-.36Z"/><path class="cls-4" d="M161.32,27.22a5,5,0,0,1,4-3.37c3.43-.79,5.63,4,5.63,4l.82-.65s-3.43-5.78.73-6.93l2.37,7.58-4.41,2.45Z"/><path class="cls-18" d="M172.51,20.3a29,29,0,0,1,4.34,6.34V31.8s-6.32,1.78-10.15,1.07a13.77,13.77,0,0,1-5.56-2s-1-4,1.91-5.52,6.17,0,7.83,3.83L173,27.61S169.34,21.88,172.51,20.3Z"/><path class="cls-6" d="M167.89,126.77a62.32,62.32,0,0,1,7.36-2.3c3.11-.67,8.5,3.77,10,14.46l-6.32.27s-.32-5.85-3.69-9.75S167.89,126.77,167.89,126.77Z"/><path class="cls-5" d="M160.51,127.31s1.08,1.76,7.38-.54c7.91-2.87,9.65,6.52,9.65,6.52s-2.29-3.84-9.65-3.84C161.81,129.45,160.51,127.31,160.51,127.31Z"/><path class="cls-6" d="M186,138.45s1.3-7.3,6.53-11.76,6.83-5.93,6.7-9.13c0,0,2.15,6.2,0,10.45s-6.52,3.43-9.21,14.79Z"/><path class="cls-19" d="M262.4,97.22c-7.47-5.55-16.22.62-19.8,4.65l2.23,2c.09-.1,8.62-9.56,15.79-4.23a9,9,0,0,1,3.82,7.23c.21,6-4.45,13.39-8.93,17.23-11,9.42-22.12,11.29-22.23,11.31l.47,2.95c.49-.07,12-2,23.7-12,5.15-4.41,10.22-12.56,10-19.61A12.09,12.09,0,0,0,262.4,97.22Z"/><path class="cls-20" d="M197.55,133.22c-5.44-2.28-12.13-7.84-13.79-13.66a9,9,0,0,1,1.42-8.06c5.16-7.24,15.86-1.08,16.32-.82L203,108.1c-4.65-2.74-14.87-5.92-20.28,1.66a12.08,12.08,0,0,0-1.86,10.62c1.94,6.79,9.27,13,15.52,15.6a56.15,56.15,0,0,0,21.42,4.41,33.43,33.43,0,0,0,4.82-.29l-.47-2.95C222.07,137.16,211,138.82,197.55,133.22Z"/><g class="cls-21"><path class="cls-15" d="M239.45,133.6a37.11,37.11,0,0,1-6.17,1.8l.47,2.95a18.14,18.14,0,0,0,1.83-.39C236.81,136.7,238.13,135.24,239.45,133.6Z"/><path class="cls-15" d="M249.79,99.88c-.15-1-.32-2.07-.55-3.13a23.53,23.53,0,0,0-6.64,5.12l2.23,2A23.23,23.23,0,0,1,249.79,99.88Z"/><path class="cls-15" d="M214.78,137.28a39.83,39.83,0,0,0,5,3.07,26.69,26.69,0,0,0,2.87-.25l-.47-2.95A38.46,38.46,0,0,1,214.78,137.28Z"/><path class="cls-15" d="M196.12,108.51a23.37,23.37,0,0,1,5.38,2.17L203,108.1a23.59,23.59,0,0,0-7.7-2.8C195.52,106.21,195.78,107.29,196.12,108.51Z"/></g><path class="cls-20" d="M249.61,163.27c.31,2-7.21,4.81-16.79,6.32s-17.59,1.12-17.91-.86,7.21-4.8,16.79-6.31S249.29,161.29,249.61,163.27Z"/><path class="cls-19" d="M247.57,162.67c.28,1.76-6.39,4.26-14.88,5.6s-15.6,1-15.88-.76,6.39-4.26,14.88-5.6S247.29,160.92,247.57,162.67Z"/><path class="cls-20" d="M220.89,138.86s4.64,5.67,5.3,10.75-2,10-2,10a7.42,7.42,0,0,0,7.86,3.94l-3.38-21.46Z"/><path class="cls-19" d="M235,136.64s-2.67,6.82-1.73,11.85,5,8.88,5,8.88a7.43,7.43,0,0,1-6.28,6.17l-3.38-21.46Z"/><path class="cls-19" d="M246.66,95.42l-24.75,3.9-24.74,3.89s3.66,30.36,31.47,38.87C252.5,125.44,246.66,95.42,246.66,95.42Z"/><path class="cls-20" d="M197.17,103.21s3.66,30.36,31.47,38.87l-6.73-42.76Z"/><path class="cls-22" d="M199.69,106.63s3.36,1.87,11.71,1a54.26,54.26,0,0,0,12.45,30.42S208,134.76,199.69,106.63Z"/><path class="cls-19" d="M246.66,95.42c.45,2.88-10.26,7-23.93,9.11s-25.11,1.56-25.56-1.32,10.26-6.95,23.92-9.1S246.2,92.55,246.66,95.42Z"/><g class="cls-21"><path class="cls-15" d="M235.88,101.59c-1.39.37-2.41.71-2.41.71A19.85,19.85,0,0,0,235.88,101.59Z"/><path class="cls-15" d="M234.78,169.26l-.38.06Z"/><path class="cls-15" d="M246.57,161.78c-1.72-.71-5.52-.88-10.23-.45a8,8,0,0,0,2-4s-4.07-3.84-5-8.88S235,136.64,235,136.64l-.07.06c16.41-17,11.7-41.28,11.7-41.28-.26-1.6-3.94-2.5-9.52-2.6l-.07.05s7.59,1.45,7.32,2.78c-.23,1.15-3.65,4.22-8.51,5.94,2.67-.71,6.73-1.53,7.7-.32,1.48,1.85,3.73,23-14.94,40.81,0,0,3.75-3,3.55-1.69s-1.61,8.61,1.09,13,3.58,6.55-1.26,10.14c0,0,9.57-1.92,11.56-.39s-3.59,5-8.43,6c8.44-1.57,14.74-4.1,14.46-5.92C249.49,162.56,248.38,162.06,246.57,161.78Z"/></g><path class="cls-20" d="M240.21,96.44c.34,2.13-7.58,5.14-17.69,6.73s-18.57,1.16-18.91-1,7.59-5.14,17.7-6.74S239.88,94.31,240.21,96.44Z"/><path class="cls-20" d="M203.61,102.2s.78-4.28,6.65-8.36a12.41,12.41,0,0,0,5.58-10.12l3.53-.56,2.52,16Z"/><path class="cls-20" d="M240.21,96.44s-2.05-3.84-8.89-5.91a12.42,12.42,0,0,1-8.41-7.93l-3.54.56,2.52,16Z"/><path class="cls-4" d="M239.71,95.72c-1-1.21-3.38-3.67-8.39-5.19a12.42,12.42,0,0,1-8.41-7.93l-3.54.56-3.53.56a12.2,12.2,0,0,1-3.31,8.14L220,87.42s5.66,3.24,9.75,4c9.13,1.71,5.53,6.87-7.27,11.75,10.11-1.59,18-4.6,17.69-6.73A1.11,1.11,0,0,0,239.71,95.72Z"/><path class="cls-22" d="M215.41,89.3a16.31,16.31,0,0,1-4.63,5.32,16,16,0,0,0-5.66,7.33,22.6,22.6,0,0,0,9.4.82s-2.32-4.2.17-7.35a12.32,12.32,0,0,0,2.36-7.24Z"/><polygon class="cls-22" points="214.83 54.31 222.74 65.52 236.46 65.36 228.25 76.35 232.64 89.35 219.65 84.93 208.64 93.13 208.83 79.41 197.63 71.47 210.74 67.41 214.83 54.31"/><polygon class="cls-20" points="215.62 59.59 221.38 67.75 231.37 67.64 225.39 75.63 228.58 85.1 219.13 81.88 211.12 87.85 211.25 77.86 203.1 72.08 212.65 69.13 215.62 59.59"/><polygon class="cls-19" points="214.83 54.31 221.38 67.75 231.37 67.64 225.39 75.63 228.58 85.1 219.65 84.93 232.64 89.35 228.25 76.35 236.46 65.36 222.74 65.52 214.83 54.31"/><circle class="cls-23" cx="183.78" cy="145.15" r="7.29" transform="translate(-42.65 204.93) rotate(-53.09)"/><path class="cls-19" d="M183.79,152.93a8,8,0,0,1-2.06-.27,7.78,7.78,0,1,1,9.55-5.46h0a7.75,7.75,0,0,1-7.49,5.73Zm0-14.58a6.8,6.8,0,0,0-5.9,10.17,6.8,6.8,0,0,0,12.47-1.58h0a6.81,6.81,0,0,0-4.77-8.35A7,7,0,0,0,183.77,138.35Z"/><path class="cls-20" d="M193.18,145.15a7.29,7.29,0,1,1-7.29-7.29A7.29,7.29,0,0,1,193.18,145.15Z"/><path class="cls-22" d="M185.89,152.93a7.78,7.78,0,1,1,7.78-7.78A7.79,7.79,0,0,1,185.89,152.93Zm0-14.58a6.8,6.8,0,1,0,6.8,6.8A6.81,6.81,0,0,0,185.89,138.35Z"/><path class="cls-23" d="M187.65,140.4v7.47a1.32,1.32,0,0,0,.26.9,1.11,1.11,0,0,0,.84.29h.5v.66H184v-.66h.55a1.07,1.07,0,0,0,.83-.29,1.27,1.27,0,0,0,.27-.9v-5a1.17,1.17,0,0,0-.24-.87,1.27,1.27,0,0,0-.86-.22H184v-.56a7.9,7.9,0,0,0,1.62-.31,2.59,2.59,0,0,0,1-.56Z"/><path class="cls-19" d="M187.68,149.06a1.07,1.07,0,0,1-.83-.29,1.27,1.27,0,0,1-.27-.9v-7.46a2.48,2.48,0,0,1-1,.55,7.9,7.9,0,0,1-1.62.31v.56h.55a1.27,1.27,0,0,1,.86.22,1.17,1.17,0,0,1,.24.87v5a1.27,1.27,0,0,1-.27.9,1.07,1.07,0,0,1-.83.29H184v.66h4.17v-.66Z"/><path class="cls-22" d="M186.58,140.41s-.51.72-2.57.86v.56c1,0,1.69-.21,1.65,1.09,0,1.48,0,3.87,0,5.31,0,.81-.89.85-1.62.83v.66h2.09l-2.31.18v-1.08s1.49.26,1.53-.65.07-5.17.07-5.17c0-.88,0-.91-1.6-.91v-1.15A4.72,4.72,0,0,0,186.58,140.41Z"/><path class="cls-10" d="M160.09,101.27l-.78,9.34s1.65,7,11.27,9.45l.84-14.14S162.66,102.09,160.09,101.27Z"/><path class="cls-4" d="M159.84,104.33c1.92,2.4,5.34,4.59,11.37,5l.21-3.46s-8.76-3.83-11.33-4.65Z"/><path class="cls-10" d="M163.67,104h0c-6.84-3.76-10-12-6.84-18.82l5.53-12a15.91,15.91,0,0,1,22.2-7.23h0a15.91,15.91,0,0,1,5.81,22.62l-7.14,11.09C179.16,106,170.51,107.72,163.67,104Z"/><path class="cls-10" d="M162.36,73.17l.22-.41,0,0a7.1,7.1,0,1,0-6.82,12.42,9.83,9.83,0,0,0,.93.43c.06-.15.11-.3.17-.44Z"/><path class="cls-24" d="M155.63,77a3.88,3.88,0,0,0,1.71,5.2,4.21,4.21,0,0,0,.7.3l3.1-6.7-.2-.14A3.89,3.89,0,0,0,155.63,77Z"/><path class="cls-10" d="M190.41,88.58c.09-.13.15-.27.23-.4h0a7.1,7.1,0,1,1-6.82,12.42,8.46,8.46,0,0,1-.86-.56l.28-.38Z"/><path class="cls-24" d="M190.77,96.33a3.88,3.88,0,0,1-5.3,1.34,4.77,4.77,0,0,1-.64-.43l4-6.21.23.1A3.88,3.88,0,0,1,190.77,96.33Z"/><path class="cls-25" d="M176.7,71.67a11.42,11.42,0,0,0-7,2.7s6.81,4.56,13.27.73c0,0-1.05,1.55-.07,5.54,0,0,2.06,1.1,5.21-1.9,0,0-.77,1.67,1.69,3.41,0,0,3.23,2.24,1.13,5.52,0,0,4.93-3.19,7.19-6.22s1.19-10.83-4-15.14c0,0,3.36-8.65-.38-12.68A10.38,10.38,0,0,0,188,62.29s-1.27-12.84-8-16.18c0,0-3.49,3.82-1.15,10,0,0-6-6-10.88-5.82,0,0-1.73,3.48,3,8.62,0,0-6-2.06-9.15.8,0,0-.48,1.7,2.24,3.36,0,0-3.47.72-2.28,2.68s.55,7.39.55,7.39a6.89,6.89,0,0,1,4.08-3S170,72.06,176.7,71.67Z"/><path class="cls-26" d="M184.76,80.73a7.26,7.26,0,0,0,3.32-2,2.13,2.13,0,0,0,.12,1.67c4-1,4.31-3.91,4.71-6.69.53-3.71-6.67-5.72-6.67-5.72.26-3.38.27-6.76-2-7.52S183,65.87,183,65.87c-2.45-5.16-6.79-5.87-8.21-5.16S176,65.33,176,65.33c-5.54-2.66-11-1.06-11.79,0s1.15,1.56,1.15,1.56a6.72,6.72,0,0,0-2.78,5.87l0,0a6.74,6.74,0,0,1,3.82-2.64s3.42,1.86,10,1.54a11.24,11.24,0,0,0-6.77,2.69s6.81,4.56,13.27.73c0,0-1.05,1.55-.07,5.54C183.56,80.7,184.18,80.72,184.76,80.73Z"/><path class="cls-18" d="M174.45,84.35l-.52,0a2.14,2.14,0,0,0-2,.88l-2,2.73a2.17,2.17,0,0,1-1.74.9h0a2.18,2.18,0,0,0-1.88,1.13l0,0,3.46,2.88Z"/><path class="cls-24" d="M174.45,84.35l.33.41a2.19,2.19,0,0,1,.32,2.16l-1.65,4.15L174,92a2.2,2.2,0,0,1,.06,2.19l0,.06-4.29-1.38Z"/><path class="cls-25" d="M173.8,79.85a1,1,0,0,1-.4-.08,15.19,15.19,0,0,1-6.91-6.09,1,1,0,0,1,1.72-.92h0a13.49,13.49,0,0,0,6,5.22,1,1,0,0,1-.41,1.87Z"/><path class="cls-25" d="M187.44,85.49a15.6,15.6,0,0,1-8.34-2.59,1,1,0,1,1,1.07-1.64,13.47,13.47,0,0,0,7.62,2.26,1,1,0,0,1,1.05.9,1,1,0,0,1-.9,1S187.73,85.49,187.44,85.49Z"/><path class="cls-27" d="M165.56,100.53a5.65,5.65,0,0,0,7.73-2l-10.14-5.57A5.65,5.65,0,0,0,165.56,100.53Z"/><path class="cls-15" d="M169.34,83.7a.49.49,0,0,1-.32-.12,10.21,10.21,0,0,0-4.86-2.38.49.49,0,0,1-.44-.54.48.48,0,0,1,.53-.44,9.57,9.57,0,0,1,4.22,1.7,6.32,6.32,0,0,0-3.09-3.24.48.48,0,0,1-.26-.64.49.49,0,0,1,.64-.27,7.29,7.29,0,0,1,4.07,5.36.49.49,0,0,1-.25.51A.48.48,0,0,1,169.34,83.7Z"/><path class="cls-15" d="M182.84,91.44a.49.49,0,0,1-.39-.19,10.24,10.24,0,0,0-4.61-2.83.48.48,0,0,1-.36-.44.49.49,0,0,1,.3-.48,7.23,7.23,0,0,1,6.7.56.48.48,0,0,1,.12.68.49.49,0,0,1-.68.13,6.28,6.28,0,0,0-4.39-.87,9.55,9.55,0,0,1,3.69,2.64.49.49,0,0,1-.08.69A.5.5,0,0,1,182.84,91.44Z"/><path class="cls-28" d="M166.26,85.79c-.44.8-2.27.65-4.08-.35s-2.93-2.45-2.48-3.26,2.26-.64,4.08.35S166.7,85,166.26,85.79Z"/><path class="cls-28" d="M184.23,95.67c-.44.8-2.26.64-4.08-.35s-2.92-2.46-2.48-3.26,2.27-.65,4.08.35S184.68,94.86,184.23,95.67Z"/><path class="cls-6" d="M151.16,103.13s2.4.67,1.47,4.81-5.08,18.7,7.88,19.37c0,0-3.74-2.84-2.27-9.22S161.45,101.53,151.16,103.13Z"/><path class="cls-4" d="M247.1,104.9s-2.79-1.85-5.44-1.12-6.42,5-6.42,5l1.83,3.66.06,2.81,1.25.9.72,4,2.38.16s.53,1.7,3.44-.08S247.19,108.31,247.1,104.9Z"/><path class="cls-10" d="M250.09,106.87s-4.76-2.23-7.61-1.29a19.58,19.58,0,0,0-5.41,3l1,2s2.93-1.79,5.55-1.26a9.71,9.71,0,0,1-5.26,2.27V114a16.66,16.66,0,0,0,5.26-.47l-4.12,2.61.6,2.6,2.2-.33.2,1.8a6.61,6.61,0,0,0,5.24-1.67C249.81,116.42,250.09,106.87,250.09,106.87Z"/><path class="cls-27" d="M199.71,66.77l.52,0C199.9,66.75,199.71,66.77,199.71,66.77Zm7.6-6s0,5.74-7.08,6c1.72,0,7.08.83,7.08,9.3,0-8.47,5.35-9.26,7.07-9.3C207.3,66.48,207.31,60.74,207.31,60.74Zm7.07,6,.53,0S214.71,66.75,214.38,66.75Z"/><path class="cls-27" d="M199.43,130.39l.62,0A4.43,4.43,0,0,0,199.43,130.39Zm8.9-7.06s0,6.72-8.28,7c2,0,8.28,1,8.28,10.89,0-9.92,6.28-10.84,8.29-10.89C208.32,130.05,208.33,123.33,208.33,123.33Zm8.29,7,.62,0A4.43,4.43,0,0,0,216.62,130.37Z"/><path class="cls-27" d="M170.73,141.25h.45A3.26,3.26,0,0,0,170.73,141.25Zm6.51-5.16s0,4.92-6.06,5.15c1.47,0,6.06.71,6.06,8,0-7.25,4.59-7.93,6.06-8C177.23,141,177.24,136.09,177.24,136.09Zm6.06,5.15h.45A3.26,3.26,0,0,0,183.3,141.24Z"/><path class="cls-27" d="M104.48,105.59h.46A3.37,3.37,0,0,0,104.48,105.59Zm6.66-5.29s0,5-6.2,5.28c1.5,0,6.2.72,6.2,8.15,0-7.43,4.69-8.12,6.2-8.15C111.13,105.34,111.14,100.3,111.14,100.3Zm6.2,5.28h.46A3.37,3.37,0,0,0,117.34,105.58Z"/><path class="cls-27" d="M192.59,59.33h0Zm5-4s0,3.81-4.69,4c1.14,0,4.69.56,4.69,6.18,0-5.62,3.56-6.15,4.7-6.18C197.63,59.14,197.63,55.33,197.63,55.33Zm4.7,4h0Z"/><path class="cls-27" d="M207,48.62h0Zm3.86-3.06s0,2.91-3.59,3c.87,0,3.59.42,3.59,4.72,0-4.3,2.72-4.7,3.59-4.72C210.89,48.47,210.89,45.56,210.89,45.56Zm3.59,3h0Z"/><path class="cls-27" d="M249.79,81.7h0Zm3.85-3.06s0,2.91-3.59,3c.87,0,3.59.42,3.59,4.72,0-4.3,2.72-4.7,3.59-4.72C253.64,81.55,253.64,78.64,253.64,78.64Zm3.59,3h0Z"/><path class="cls-27" d="M267.44,125.4h0Zm3.85-3.06s0,2.92-3.59,3c.88,0,3.59.43,3.59,4.72,0-4.29,2.72-4.7,3.6-4.72C271.29,125.26,271.29,122.34,271.29,122.34Zm3.6,3h0Z"/><path class="cls-27" d="M191.61,153h0Zm3.85-3.06s0,2.91-3.59,3.05c.87,0,3.59.42,3.59,4.72,0-4.3,2.72-4.7,3.59-4.72C195.46,152.89,195.46,150,195.46,150Zm3.59,3.05h0Z"/><polygon class="cls-20" points="31.5 124.44 24.94 135.79 38.05 135.79 31.5 124.44"/><polygon class="cls-20" points="95.47 31.7 88.91 43.05 102.02 43.05 95.47 31.7"/><polygon class="cls-20" points="44.66 96.91 39.32 96 42.77 91.83 44.66 96.91"/><polygon class="cls-6" points="65.28 85.68 55.2 83.29 62.32 75.75 65.28 85.68"/><polygon class="cls-6" points="50.45 176.93 47.66 165.37 59.06 168.74 50.45 176.93"/><polygon class="cls-20" points="100.3 181.97 95.29 178.35 100.93 175.82 100.3 181.97"/><polygon class="cls-20" points="78.11 142.8 73.1 139.18 78.74 136.65 78.11 142.8"/><polygon class="cls-29" points="305.79 266.42 300.78 262.8 306.42 260.27 305.79 266.42"/><polygon class="cls-20" points="295.8 86.65 303.02 86.41 299.62 92.79 295.8 86.65"/><polygon class="cls-20" points="333.71 103.67 338.9 102.12 337.64 107.39 333.71 103.67"/><polygon class="cls-6" points="293.21 110.45 305.74 107.59 301.96 119.86 293.21 110.45"/><polygon class="cls-6" points="326.92 116.94 332.23 112.39 333.52 119.27 326.92 116.94"/><polygon class="cls-20" points="126.04 22.77 131.23 21.22 129.98 26.49 126.04 22.77"/><polygon class="cls-6" points="198.86 12.01 208.97 9.7 205.91 19.6 198.86 12.01"/><polygon class="cls-6" points="314.57 57.45 322.18 66.59 310.46 68.61 314.57 57.45"/><polygon class="cls-29" points="281.46 37.47 292.44 40.76 284.1 48.63 281.46 37.47"/><polygon class="cls-20" points="264.24 117.46 270.33 118.49 266.39 123.25 264.24 117.46"/><polygon class="cls-20" points="314.38 81.39 320.47 82.42 316.53 87.18 314.38 81.39"/><polygon class="cls-30" points="350.89 143.83 361.1 141.53 357.98 151.52 350.89 143.83"/><polygon class="cls-30" points="74.1 61.23 84.31 58.93 81.19 68.92 74.1 61.23"/><polygon class="cls-29" points="356.18 185.95 367.83 185.96 361.99 196.05 356.18 185.95"/><polygon class="cls-30" points="335.94 198.7 343 203.72 335.13 207.33 335.94 198.7"/><polygon class="cls-20" points="320.15 291.89 332.68 288.04 323.08 279.12 320.15 291.89"/><polygon class="cls-20" points="22.95 209.15 34.09 216.06 34.51 202.97 22.95 209.15"/><polygon class="cls-20" points="315.27 229.59 318.06 236.26 310.89 235.34 315.27 229.59"/><polygon class="cls-20" points="69.65 298.46 68.58 303.77 64.51 300.19 69.65 298.46"/><polygon class="cls-29" points="274.57 187.91 280.32 196.53 269.98 197.21 274.57 187.91"/><polygon class="cls-20" points="251.75 400 252.76 394.91 238.97 397.16 251.75 400"/><polygon class="cls-20" points="311.2 357.34 312.2 352.25 298.41 354.51 311.2 357.34"/><polygon class="cls-20" points="257.48 323.31 265.95 323.21 261.96 325.69 257.48 323.31"/><polygon class="cls-20" points="342.46 374.13 348.55 373.53 347.08 375.58 342.46 374.13"/><polygon class="cls-6" points="323.59 378.1 338.27 376.98 333.84 381.76 323.59 378.1"/><polygon class="cls-6" points="3.23 374.82 17.91 373.71 13.48 378.49 3.23 374.82"/><polygon class="cls-6" points="330.62 358.29 342.47 357.38 338.89 361.24 330.62 358.29"/><polygon class="cls-6" points="298.94 345.6 305.18 343.83 306.69 346.51 298.94 345.6"/><polygon class="cls-6" points="333.21 353.41 341.04 351.18 342.94 354.54 333.21 353.41"/><polygon class="cls-30" points="278.07 354.23 293.46 351.91 291.82 357.49 278.07 354.23"/><polygon class="cls-30" points="353.63 362.27 365.6 361.38 361.95 365.27 353.63 362.27"/><polygon class="cls-29" points="207.23 337.48 220.89 337.48 214.05 341.41 207.23 337.48"/><polygon class="cls-30" points="268.7 333.54 276.98 335.49 267.74 336.9 268.7 333.54"/><polygon class="cls-20" points="23.81 384.36 16.12 389.33 31.5 389.33 23.81 384.36"/><polygon class="cls-20" points="121.66 327.18 113.97 332.15 129.35 332.15 121.66 327.18"/><polygon class="cls-20" points="56.19 377.53 49.92 377.13 53.98 375.31 56.19 377.53"/><polygon class="cls-6" points="44.78 362.75 32.95 361.7 41.3 358.4 44.78 362.75"/><polygon class="cls-6" points="112.99 397.93 105.04 398.69 107.25 395.74 112.99 397.93"/><polygon class="cls-6" points="83.25 389.2 75.3 389.96 77.51 387.01 83.25 389.2"/><polygon class="cls-6" points="34.46 387.33 24.47 388.29 27.25 384.58 34.46 387.33"/><polygon class="cls-30" points="119.74 364.36 102.85 364.16 111.77 358.8 119.74 364.36"/><polygon class="cls-30" points="368.84 381.73 351.95 381.52 360.86 376.17 368.84 381.73"/><polygon class="cls-29" points="31.5 361.91 35.84 355.19 49.26 359.95 31.5 361.91"/><polygon class="cls-6" points="317.97 392.51 306.14 391.46 314.49 388.16 317.97 392.51"/><polygon class="cls-29" points="304.69 391.66 309.03 384.94 322.45 389.71 304.69 391.66"/><polygon class="cls-30" points="80.2 345.17 70.57 344.3 77.39 341.62 80.2 345.17"/><polygon class="cls-29" points="99.84 357.51 87.59 355.25 98.96 352.42 99.84 357.51"/><polygon class="cls-30" points="79.1 356.78 74.28 353.44 84.44 353.55 79.1 356.78"/><path class="cls-27" d="M331.16,148.07a3.56,3.56,0,1,1-3.56-3.56A3.56,3.56,0,0,1,331.16,148.07Z"/><path class="cls-27" d="M24,183.51a3.95,3.95,0,1,1-4-3.94A4,4,0,0,1,24,183.51Z"/><path class="cls-27" d="M341.89,252.7a2.8,2.8,0,1,1-2.79-2.79A2.79,2.79,0,0,1,341.89,252.7Z"/><path class="cls-27" d="M119.15,183.42a.68.68,0,1,1-.68-.67A.67.67,0,0,1,119.15,183.42Z"/><circle class="cls-27" cx="114.47" cy="285.51" r="3.33"/><path class="cls-27" d="M261,282.18a3.47,3.47,0,1,1-3.47-3.47A3.47,3.47,0,0,1,261,282.18Z"/><circle class="cls-27" cx="302.74" cy="297.01" r="3.8"/><path class="cls-27" d="M341.89,168.86a2.29,2.29,0,1,1-2.28-2.28A2.29,2.29,0,0,1,341.89,168.86Z"/><circle class="cls-27" cx="45.04" cy="226.41" r="2.78"/><circle class="cls-27" cx="85.92" cy="295.41" r="2.21"/><path class="cls-27" d="M232,21.38a4.11,4.11,0,0,0-.76-3.95c-2.57-3.48-7.89-3.64-10.94-.78-1.13,1.05.56,2.73,1.68,1.68a5.08,5.08,0,0,1,5.28-1,4,4,0,0,1,2.32,1.85,4.34,4.34,0,0,1,.1.43,6,6,0,0,0-1.45-.46,4.35,4.35,0,0,0-4.93,2.27,2.47,2.47,0,0,0,2.23,3.43,7,7,0,0,0,5-1.51,4.81,4.81,0,0,1,.66,4.7c-.56,1.43,1.74,2.05,2.3.63A7.21,7.21,0,0,0,232,21.38Zm-5.85.86c-.8-.46.26-.67.83-.76a3,3,0,0,1,1.69.31,4.19,4.19,0,0,1-1.25.44C226.94,22.32,226.69,22.52,226.18,22.24Z"/><path class="cls-27" d="M350.65,320.16a4.09,4.09,0,0,0,1.52-3.72c-.25-4.32-4.62-7.36-8.74-6.63-1.51.26-1,2.6.49,2.33a5,5,0,0,1,4.95,2.07,4,4,0,0,1,.94,2.81,3.4,3.4,0,0,1-.15.42,6.7,6.7,0,0,0-1-1.18,4.36,4.36,0,0,0-5.38-.79,2.47,2.47,0,0,0,0,4.09,7,7,0,0,0,5,1.48,4.81,4.81,0,0,1-2,4.3c-1.25.89.34,2.66,1.58,1.78A7.21,7.21,0,0,0,350.65,320.16Zm-5.36-2.47c-.43-.82.58-.42,1.1-.18a2.87,2.87,0,0,1,1.24,1.18,3.83,3.83,0,0,1-1.27-.32C345.88,318.18,345.55,318.21,345.29,317.69Z"/><path class="cls-30" d="M8.26,73.75a4.1,4.1,0,0,0-4-.17c-4,1.7-5.36,6.84-3.28,10.47.76,1.33,2.79.08,2-1.25a5,5,0,0,1,.27-5.36,4,4,0,0,1,2.33-1.83,2.26,2.26,0,0,1,.45,0,6.36,6.36,0,0,0-.79,1.3,4.37,4.37,0,0,0,1.07,5.33,2.47,2.47,0,0,0,3.85-1.39,7,7,0,0,0-.3-5.23,4.82,4.82,0,0,1,4.72.44c1.26.87,2.39-1.22,1.14-2.09A7.21,7.21,0,0,0,8.26,73.75Zm-.51,5.89c-.63.68-.6-.4-.55-1a2.91,2.91,0,0,1,.7-1.57A4.26,4.26,0,0,1,8,78.4C8,78.92,8.14,79.21,7.75,79.64Z"/><path class="cls-20" d="M309.76,158.51a12.26,12.26,0,0,0-5.57.15c-2.69-1.68-6.62-1.23-9.2.4a4.77,4.77,0,0,0-4.15.66c-1.72,1.19-4,5.41-.67,6.07,1.25.25,1.78-1.67.53-1.92-.41-.08,1.5-2.91,2.37-3l.09.1c-1.12,1.84-1.23,4.2,1.33,5.13s3.92-1.82,3.33-4a4.43,4.43,0,0,0-1-1.86,7.74,7.74,0,0,1,4.87-.46,6.17,6.17,0,0,0-2.2,2.36c-1.59,3.06,2.11,4.75,4.7,4.06,2.85-.75,3.14-3.81,1.7-5.93a11.48,11.48,0,0,1,3.36.2C310.48,160.71,311,158.79,309.76,158.51Zm-5.06,3.78-1.59,2c-2.12.61-.93-2-.29-2.78a2.72,2.72,0,0,1,.68-.58Z"/><path class="cls-6" d="M317,20.47a12.07,12.07,0,0,0-4.67-3c-1.27-2.9-4.77-4.76-7.82-4.86a4.76,4.76,0,0,0-3.81-1.8c-2.08,0-6.31,2.23-4,4.63.89.91,2.41-.37,1.52-1.29-.29-.3,2.88-1.55,3.66-1.15,0,0,0,.09,0,.13-2,.88-3.39,2.78-1.8,5s4.26.71,5-1.43a4.32,4.32,0,0,0,.21-2.11,7.68,7.68,0,0,1,4.28,2.37,6,6,0,0,0-3.15.7c-3,1.63-.93,5.11,1.59,6,2.77,1,4.74-1.38,4.75-3.94a11.45,11.45,0,0,1,2.66,2.05C316.33,22.68,317.86,21.4,317,20.47Zm-6.3.26-2.44.76c-2.1-.69.35-2.17,1.32-2.46a2.71,2.71,0,0,1,.9-.09C310.52,19.54,310.59,20.14,310.67,20.73Z"/><path class="cls-30" d="M82.44,99.5a7.94,7.94,0,0,0-2.23,2.9,5.52,5.52,0,0,0-6.3,2.53,5.74,5.74,0,0,0-7.31,4.87c-.12.87,1.24,1,1.35.1a4.34,4.34,0,0,1,5.41-3.72,5.44,5.44,0,0,0,0,3c.37,1.34,1.72,3.52,3.38,2.62s.86-3.5,0-4.7a5.73,5.73,0,0,0-1.67-1.66,3.9,3.9,0,0,1,2.21-1.71,4.47,4.47,0,0,1,2.43-.06,8.11,8.11,0,0,0-.24,1.64c-.06,1.63.5,4.85,2.38,5.42s2.24-2,2.19-3.23a5.66,5.66,0,0,0-2.62-4.6,6.51,6.51,0,0,1,1.89-2.44C84,100,83.11,99,82.44,99.5Zm-7.15,10.71c-.39-.12-.73-1.59-.77-1.93a4.06,4.06,0,0,1,.06-1.48,5,5,0,0,1,.7.62S77.49,110.82,75.29,110.21Zm6.2-1.79c-.85-.85-.69-3-.48-4.11a3.87,3.87,0,0,1,.94,1C82.54,106.2,83.26,110.18,81.49,108.42Z"/><path class="cls-20" d="M107.79,228.06c-3.72,1-5.76,5.95-2.6,8.82,1,.92,2.56-.55,1.54-1.48a3.15,3.15,0,0,1,1-5.09c.67,3.41,4.4,7.76,7.7,4.95,3.46-2.93-1.88-6.48-5.3-7.23a3.27,3.27,0,0,1,5.4-1.08c1,1,2.52-.5,1.55-1.47A5.57,5.57,0,0,0,107.79,228.06Zm5.33,4.81c0,1-.26,1.19-.82.71a3.28,3.28,0,0,1-1.38-1.07,4.82,4.82,0,0,1-1-2.45,6.4,6.4,0,0,1,1.95.65C112.89,231.28,113.66,231.55,113.12,232.87Z"/><path class="cls-29" d="M218.61,271.57a7.37,7.37,0,0,0-3.88.78,7.09,7.09,0,0,0-.86-.87c-2.77-2.35-8-1.75-8.81,2.28-.36,1.86,2.49,2.65,2.85.79.45-2.33,3.11-1.59,4.42-.41a8,8,0,0,0-2.2,4.92,5.93,5.93,0,0,0,2.36,5.39,3.39,3.39,0,0,0,4.65-.79c1.64-2.27.82-6-.72-8.83a5.14,5.14,0,0,1,2.19-.31C220.5,274.67,220.49,271.71,218.61,271.57Zm-3.74,10.09c-.65.5-1.54-.75-1.71-1.22a4.19,4.19,0,0,1,.4-2.92,4.84,4.84,0,0,1,.47-.79,10.31,10.31,0,0,1,1,3.68C215,280.64,215.06,281.51,214.87,281.66Z"/><path class="cls-20" d="M48.33,316.29a7.43,7.43,0,0,0-3.87.78,7.93,7.93,0,0,0-.87-.87c-2.77-2.35-8-1.74-8.8,2.28-.36,1.86,2.48,2.66,2.84.79.45-2.33,3.12-1.58,4.42-.41a8.09,8.09,0,0,0-2.19,4.93,5.87,5.87,0,0,0,2.35,5.38,3.39,3.39,0,0,0,4.66-.79c1.63-2.27.81-5.95-.72-8.82a4.94,4.94,0,0,1,2.18-.31C50.22,319.39,50.21,316.44,48.33,316.29Zm-3.74,10.09c-.65.5-1.54-.75-1.71-1.21a4.24,4.24,0,0,1,.4-2.92,4.54,4.54,0,0,1,.47-.8,10.2,10.2,0,0,1,1,3.69C44.72,325.36,44.78,326.24,44.59,326.38Z"/></g></g></g></svg>