<svg xmlns="http://www.w3.org/2000/svg" viewBox="0 0 187.8 200"><defs><style>.cls-1{isolation:isolate;}.cls-2{fill:#393e5c;}.cls-17,.cls-3{fill:#ddedf2;}.cls-3,.cls-8{opacity:0.1;}.cls-15,.cls-4,.cls-7{fill:#1d262d;}.cls-21,.cls-4{opacity:0.15;}.cls-21,.cls-4,.cls-7{mix-blend-mode:multiply;}.cls-5{fill:#ba0035;}.cls-6{fill:#f9194f;}.cls-7{opacity:0.2;}.cls-27,.cls-8{fill:#fdf9fe;}.cls-9{fill:#5997aa;}.cls-10{fill:#ffb190;}.cls-11{fill:#7db5c6;}.cls-12{fill:#387887;}.cls-13{fill:#509bb2;}.cls-14{fill:#62b2c4;}.cls-16{fill:#acd9ea;}.cls-18{fill:#ea8383;}.cls-19{fill:#e59117;}.cls-20{fill:#ffc833;}.cls-22{fill:#fff087;}.cls-23{fill:#fdab1f;}.cls-24{fill:#ee6461;}.cls-25{fill:#995425;}.cls-26{fill:#af6635;}.cls-28{fill:#ff4060;}.cls-29{fill:#4de867;}.cls-30{fill:#f748e7;}</style></defs><g class="cls-1"><g id="Layer_2" data-name="Layer 2"><g id="OBJECT"><circle class="cls-2" cx="95.84" cy="91.96" r="91.96"/><circle class="cls-3" cx="95.84" cy="91.96" r="56.67"/><circle class="cls-3" cx="95.84" cy="91.96" r="35.79"/><path class="cls-3" d="M95.84,137.77A45.82,45.82,0,1,1,141.66,92,45.86,45.86,0,0,1,95.84,137.77Zm0-87.65A41.84,41.84,0,1,0,137.68,92,41.88,41.88,0,0,0,95.84,50.12Z"/><path class="cls-2" d="M133.66,50.58a6,6,0,0,0-6.58-.24h0c-.17.09-.34.18-.5.28h0c-.2.12-.4.24-.59.37v-.18l0-.26v-.1c0-.08,0-.14,0-.21v-.09l0-.15v-.18l0-.07v-.08h0a.74.74,0,0,0,0-.14l0,0a.41.41,0,0,0,0-.09l0,0-.07-.08-.06,0a.22.22,0,0,0-.09-.07l-.06-.05-.12-.06-.07,0L125,49l-.08,0-.18-.07-.07,0-.27-.08h0c-.2-.06-.43-.1-.67-.15h-.06l-.31,0h-.09l-.3,0h-.11a3.16,3.16,0,0,0-.32,0h-.1l-.36,0H122l-.41,0h-.92l0,0-.31-.19-.1,0-.37-.2,0,0a3.82,3.82,0,0,0-.46-.21l-.12,0a3.52,3.52,0,0,0-.39-.16l-.15,0c-.17-.07-.36-.13-.55-.19a6.47,6.47,0,0,1-2.92-1.8l3.58,1.21-2.2-6.5,4.11-5.49-6.86.08-4-5.61-2,6.55-6.42,2a7.1,7.1,0,0,0-1.89-2.54s1.68-4.32-.19-6.33a5.17,5.17,0,0,0-2.87,4.32s-.64-6.42-4-8.09a5,5,0,0,0-.57,5s-3-3-5.44-2.91c0,0-.87,1.74,1.49,4.31,0,0-3-1-4.57.4,0,0-.24.85,1.12,1.68,0,0-1.74.36-1.15,1.34.49.8.37,2.76.31,3.45a3.55,3.55,0,1,0-3.34,6.24,3.82,3.82,0,0,0,.46.21,7.22,7.22,0,0,0,1.72,7.85h0l-.13,1.52h0l-.18,2.19-.08,0,0,0a2.8,2.8,0,0,0-3-2.81,1.91,1.91,0,0,0-1,.08,1.86,1.86,0,0,0-.74.61c-11.69-10-2.66-27.59-2.66-27.59s3.52-6.5,8.39-9.17a6.89,6.89,0,0,0,2.78,1,14.55,14.55,0,0,0,5.08-.53V16.52c1.14-.49,2.19-1,2.11-1.37-.15-.71-.72-2.31-.72-2.31l-1.44-.27c-1.87-3.47-5-2.49-6.89-.8a24.88,24.88,0,0,0-2.81,2.85,24.81,24.81,0,0,0-10,7,4.19,4.19,0,0,0-2.5-.78h0a40,40,0,0,0-6.12,15c0,.31-.09.61-.14.9-.12.9-.2,1.77-.24,2.63q0,.42,0,.84c0,.29,0,.56,0,.84s0,.55,0,.82A28.59,28.59,0,0,0,62.38,45c.07.51.16,1,.25,1.5,0,.24.1.48.16.72.16.72.34,1.42.54,2.09a31.28,31.28,0,0,0,1.4,3.8c.17.39.35.78.53,1.15,2.16,4.47,4.75,7.51,5.5,8.91a74,74,0,0,1,3.8,11.08l.21.73v0c.07.23.13.46.2.7v0l.18.66,0,.07c0,.21.11.41.16.61l0,.1.15.57,0,.11c0,.18.09.36.13.53l0,.14.12.47,0,.16c0,.15.07.29.1.43l0,.17.09.37c0,.07,0,.14,0,.2s0,.22.08.32,0,.13,0,.19,0,.19.07.28,0,.13,0,.2,0,.15,0,.22a1.06,1.06,0,0,0,0,.19,1.29,1.29,0,0,0,0,.19l0,.17a.78.78,0,0,1,0,.14,1.55,1.55,0,0,1,0,.17s0,.06,0,.09,0,.14,0,.19,0,.26,0,.38,0,.08,0,.12a2.11,2.11,0,0,1,0,.25s0,.08,0,.12a2.74,2.74,0,0,1,0,.28.43.43,0,0,1,0,0,2.81,2.81,0,0,1-.08.31l0,.09-.07.22,0,.07-.1.24v0a4.84,4.84,0,0,1-.24.46h0a3.15,3.15,0,0,1-.29.42,16.41,16.41,0,0,0,1.76,1.6c.4.32.82.62,1.24.9l.22.14h0v0l0,.06,0,0a.63.63,0,0,0-.07.12v0a32.8,32.8,0,0,0-2.55,6l0,.05c-.08.27-.17.55-.26.83h0c-.29,1-.58,2-.85,3.16-.15.62-.29,1.28-.43,2s-.31,1.67-.44,2.56c0,.16,0,.32-.07.48-.15,1-.27,2.1-.37,3.22-.15,1.81-.24,3.74-.23,5.79,0,.68,0,1.38,0,2.09a81.5,81.5,0,0,0,3.19,19.59A47.56,47.56,0,0,1,78,139.37l.12.63.12.74c.07.38.12.77.17,1.16a1,1,0,0,1,0,.16,23.21,23.21,0,0,1,.11,5.93,1,1,0,0,0,0,.17,8.6,8.6,0,0,1-.82,2.71,5.08,5.08,0,0,0,1.21,1.19l.32.23c.32.22.68.43,1,.64l.39.2a19.9,19.9,0,0,0,2.46,1h0a6.85,6.85,0,0,1,1.68,1.5l.37.45c.18.23.36.48.55.76s.22.32.33.5c.22.35.44.73.67,1.16h0l.18,0h0l.22,0h0l.29,0h0l.35,0h.55l.89,2.26a95.88,95.88,0,0,1-14.16,5.43s3,3.57,10,2,7.22-2.22,11.4-2.85l-4.55-8h0a8.61,8.61,0,0,0,1.46-1.16A11.27,11.27,0,0,1,93,150h0a8.88,8.88,0,0,0,.85-3.56c-4.93-3-5.34-8-7-12.65s-6.59-25.65,8.2-30.81a45,45,0,0,1,8.66-2.44c.64-.12,1.27-.22,1.89-.31l.11,0,1.8-.23h.12l.27,0,0,0c-.38.79-.8,1.59-1.24,2.39l-.37.65c-.63,1.09-1.31,2.17-2,3.2-.41.57-.83,1.12-1.27,1.66a23.2,23.2,0,0,1-2.84,2.93h0a10.37,10.37,0,0,1,2.12,6.22,10.25,10.25,0,0,1-.6,3.39h0a3.89,3.89,0,0,0,.76.36h0l-2.26,8.37s5.44-2.14,12.6-4.14a13.08,13.08,0,0,0,9-8c-3.6,1.18-9,2.45-12.76,3.3l.17-.29,0,0c.08-.13.17-.27.25-.42l0,0,.15-.24,0,0c.09-.14.18-.28.28-.42l.08-.13.15-.21a10.34,10.34,0,0,1,1.86-2.13,23,23,0,0,1,4.09-2.5s.18-8.72,3.74-14.07c2.71-4,4.48-11.28,5.19-14.53l.12,0,.15-.06.31-.13.17-.08.25-.12.17-.09.2-.11.16-.1.15-.11.13-.1a1.56,1.56,0,0,0,.21-.21l.07-.08a.54.54,0,0,0,.07-.13l0-.06a.37.37,0,0,0,0-.18h0a.31.31,0,0,0-.06-.16l0,0a.45.45,0,0,0-.1-.09.12.12,0,0,0,0,0,1.18,1.18,0,0,0-.19-.11l-.14-.06-.12,0-.19-.06-.07,0c-.16,0-.35-.08-.55-.11h0l-.36-.12h0a2.5,2.5,0,0,0-.43-.09h0a12.86,12.86,0,0,0-1.8-.12h-.91l-.57,0h-.2l-.8.07a3.9,3.9,0,0,0,.94-1.8h0a.74.74,0,0,0,0-.12h0v0l-.09-.09c-.11-.12-.32-.34-.58-.66l-.2-.25a9.17,9.17,0,0,1-.84-1.3,3.55,3.55,0,0,1-.2-.39,6.93,6.93,0,0,1-.59-1.75,6.38,6.38,0,0,1-.1-1h0c0-.32,0-.65,0-1a14.74,14.74,0,0,1,.66-3.18l.17,0h0l.34-.08h0a27.17,27.17,0,0,0,10.94-5.8c2.57-2.2,5.11-6.28,5-9.8A6,6,0,0,0,133.66,50.58Zm-52.78-6a.49.49,0,0,0,0,.11.49.49,0,0,1,0-.11l.6-1.31h0Zm23.54,76.73Zm6.48-51.11c.24.17.49.34.75.5-.52,0-1.12,0-1.8,0l-.87-.07C109.64,70.43,110.28,70.3,110.9,70.16ZM92.72,59.56l-.43-.3-.14-.1-.32-.22,1,0A4.69,4.69,0,0,0,92.72,59.56Zm-4-2.86-.55-.4-.08,0,.08-1.4h0a7,7,0,0,0,5.9-3.13l3.58-5.54a8.54,8.54,0,0,0,.48-.89,2.07,2.07,0,0,1-.22.45,16.83,16.83,0,0,0,3.59-3.12c.74-1,.76-3,0-4.84l5.39,3.82-.1,6.86,3-2.25a6.26,6.26,0,0,1-1.08,1.62,7.05,7.05,0,0,1-1.14,1,10.57,10.57,0,0,0-2.07,1.87c-2.84.94-4.61,2-4.47,2.82,0,0,0,.13,0,.37s.1.54.18.93h0l-.07,0-.49-.12-.08,0c-2.21-.49-4.75-.32-6.49,1.74A17.86,17.86,0,0,0,88.72,56.7Zm13-.09a27.74,27.74,0,0,0,.93,2.73A28.12,28.12,0,0,0,104,62.29l-1.58-.1a10,10,0,0,0-.34-1.44,10.2,10.2,0,0,0-6.12-4,5.34,5.34,0,0,1,4.55-.55h0A9.78,9.78,0,0,1,101.71,56.61Zm-7.55,3.88A4.3,4.3,0,0,1,94.4,59,13.64,13.64,0,0,1,102,61.83l-.12.3c-1-.1-1.92-.23-2.75-.38h0l-.93-.18h0A28.73,28.73,0,0,1,94.16,60.49Zm1.43,10.17H95.4c0-.33-.07-.65-.11-1h0l.55.16C95.73,70.17,95.65,70.45,95.59,70.66Zm15.7,14.42c-.92.44-1.43.88-1.37,1.26a.58.58,0,0,0,.28.36c-5.56,1.2-10,2.19-10,2.19-1.6-2.37-2.77-6.38-3.61-10.64a3.9,3.9,0,0,0,2.72-3.71A3.85,3.85,0,0,0,98,71.64q.22-.65.45-1.14a27.91,27.91,0,0,0,5.14.49,27.4,27.4,0,0,0,7.8,1.18c.36,0,.69,0,1,0h.46l.22,0h.08l.24,0h.06a12,12,0,0,1,2.15,4.71,9.27,9.27,0,0,1-1,5,4,4,0,0,0,1.53,1.58A14.17,14.17,0,0,0,111.29,85.08ZM130.22,64a26.87,26.87,0,0,1-8,4.75c-.45.17-.87.31-1.23.43a21.11,21.11,0,0,0,2.57-3.92l0,0c.14-.27.27-.55.4-.83l0,0,.36-.85h0c.18-.46.35-.92.5-1.38a.53.53,0,0,0,.1-.06A.39.39,0,0,0,125,62a2.78,2.78,0,0,0,1.29-.73c1.06-1.07,1.2-5.85,1.2-5.85a10.42,10.42,0,0,0-1.43-.51c0-.77,0-1.47,0-2.1a11.06,11.06,0,0,1,1.26-.88c1.54-.91,3.57-1.5,5.42-.13a4.51,4.51,0,0,1,1.91,3.62C134.78,58.42,132.46,62.1,130.22,64ZM99.42,51a3.67,3.67,0,0,0-1.62-4.93h0l-.11.2L94.1,51.8A2.43,2.43,0,0,0,94,52a3.12,3.12,0,0,0,.43.27A3.67,3.67,0,0,0,99.42,51Z"/><path class="cls-4" d="M95.84,153.33c-31,0-56.39,4.36-58.15,9.86a90.29,90.29,0,0,0,8.26,6c10.2,3,28.73,5.07,49.89,5.07s39.7-2,49.9-5.07a91.69,91.69,0,0,0,8.26-6C152.23,157.69,126.87,153.33,95.84,153.33Z"/><path class="cls-5" d="M109.75,175.41c-4.48-.16-9.13-.24-13.91-.24s-9.42.08-13.9.24H30.12v10.34c0,5.84,29.43,10.57,65.72,10.57s65.73-4.73,65.73-10.57V175.41Z"/><ellipse class="cls-5" cx="95.84" cy="175.41" rx="65.72" ry="10.58"/><ellipse class="cls-6" cx="95.84" cy="175.41" rx="64.08" ry="9.39"/><path class="cls-5" d="M106.8,165.18c-3.53-.12-7.2-.18-11-.18s-7.42.06-11,.18H44.06v8.15c0,4.6,23.19,8.33,51.78,8.33s51.78-3.73,51.78-8.33v-8.15Z"/><ellipse class="cls-5" cx="95.84" cy="165.18" rx="51.78" ry="8.33"/><ellipse class="cls-6" cx="95.84" cy="165.18" rx="50.49" ry="7.4"/><path class="cls-7" d="M161.57,185.75V175.41c0-2.46-5.21-4.72-13.95-6.52v-3.71c0-3.31-12-6.17-29.44-7.52h0s23.26,9.9-8.44,15.67v8s-3,3.43-12.81,3.43v11.52C132.72,196.23,161.57,191.53,161.57,185.75Z"/><path class="cls-8" d="M44.06,165.18v3.71c-8.73,1.8-13.94,4.06-13.94,6.52v10.34c0,2.68,6.23,5.14,16.49,7V181.28c5.58.22,33.73,0,33.73,0-23.54-.93-33.73-7.76-33.73-7.76v-5.26c18.88,6.73,41.58,4.32,41.58,4.32s-40.1-2.68-40.1-7.4,30.81-7.87,30.81-7.87h0C58.62,158.44,44.06,161.54,44.06,165.18Z"/><path class="cls-7" d="M117.21,161.15a71,71,0,0,0-10.2.68,140.85,140.85,0,0,0-14.37-.68c-14.06,0-25.45,1.75-25.45,3.91S78.58,169,92.64,169a134.87,134.87,0,0,0,15.63-.82,75.08,75.08,0,0,0,8.94.51c9.79,0,17.72-1.68,17.72-3.75S127,161.15,117.21,161.15Z"/><path class="cls-9" d="M66.16,18.84s3.7-.4,6,5.74C72.17,24.58,66,23.78,66.16,18.84Z"/><path class="cls-10" d="M72.17,24.58s3.53-6.5,8.4-9.17l-1.89-2.76a24.6,24.6,0,0,0-12.47,10.4S70,25.3,72.17,24.58Z"/><path class="cls-4" d="M68.51,19.79a22.48,22.48,0,0,0-2.3,3.26s3.83,2.25,6,1.53A21.6,21.6,0,0,1,68.51,19.79Z"/><path class="cls-11" d="M91.5,58.45s12.66,4.94,24.85-1.11l.71,7.66s-11.65,6.8-24.23,2.73Z"/><path class="cls-4" d="M95.69,59.6a3.33,3.33,0,0,1,.09,2.6c-.48.83-2.41,2.64-3,5l.07.53c.78.25,1.56.46,2.33.63a39.23,39.23,0,0,0,4.07-5.73,7.18,7.18,0,0,0,.62-2.42A36.48,36.48,0,0,1,95.69,59.6Z"/><path class="cls-5" d="M86.26,54.73s9-2.1,13.36,4.05L100,60.3s-3.78-4.08-11.69-3.25Z"/><path class="cls-5" d="M75.58,51.57a2.3,2.3,0,0,0-1.27,1.73,30.68,30.68,0,0,0,4.37-.15S77.32,50.9,75.58,51.57Z"/><path class="cls-12" d="M97.73,86.92s15.94-3.56,25.2-5.34c0,0-1.78,10-5.52,16.2,0,0-13.18-1.42-24.75,3.21l-.24-11.4Z"/><path class="cls-4" d="M108.75,97.68l.83-10.58a83,83,0,0,1-8.26,11.45A61.89,61.89,0,0,1,108.75,97.68Z"/><path class="cls-13" d="M109.58,87.1s-3.74,14.78-11.85,21.73a10.24,10.24,0,0,1,1.52,9.61s2.13,1.43,6.76.89c0,0,1.78-3.56,3.57-5a23,23,0,0,1,4.09-2.5s.18-8.72,3.74-14.07,5.52-16.2,5.52-16.2Z"/><path class="cls-12" d="M97.73,108.83a10.24,10.24,0,0,1,1.52,9.61s2.13,1.43,6.76.89a27.3,27.3,0,0,1,1.7-2.85,16.27,16.27,0,0,0-4.56.67,18,18,0,0,1-.65-3.92c0-1.63,3-3.92,3-3.92h-4.69l2.39-1.47c5.55-7.34,6.43-20.74,6.43-20.74S105.84,101.88,97.73,108.83Z"/><path class="cls-13" d="M92.66,101s1.48-4.1-.24-11.4-16-3.24-16-3.24-10.51,16.6-2.14,46c0,0,3.62,11.39,1,16.56.91,1.33,3.18,2.51,5.43,3.29h0s1.81,1,3.59,4.37a7.08,7.08,0,0,0,6.59-2.19,11.33,11.33,0,0,1-.31-6.36h0a8.88,8.88,0,0,0,.85-3.56c-4.93-3-5.34-8-7-12.65S77.87,106.15,92.66,101Z"/><path class="cls-14" d="M74.31,132.34s3.62,11.39,1,16.56c.91,1.33,3.18,2.51,5.43,3.29h0s1.81,1,3.59,4.37a6.09,6.09,0,0,0,2.49,0c-.84-1.13-3.83-5.16-4.61-6.14-.91-1.14-3.48-1.63-3.48-1.63a13.92,13.92,0,0,0,4.63-2.13c-2.87-.32-4.63-3.1-4.63-3.1,0-5.71-4.25-20.57-4.25-20.57l.64-1.93L72.62,121l3.83-1.51h-3c-3.56-15.81,3-33.1,3-33.1S65.94,103,74.31,132.34Z"/><path class="cls-4" d="M92.42,89.59c-1.72-7.3-16-3.24-16-3.24a32.9,32.9,0,0,0-3,7.13c22.18,1.77,24.26-6.56,24.26-6.56l-5.31,2.67Z"/><path class="cls-15" d="M85.89,156.7l.89,2.26a95.88,95.88,0,0,1-14.16,5.43s3,3.57,10,2,7.22-2.22,11.4-2.85l-4.55-8Z"/><path class="cls-15" d="M102,119.3S113.18,117,119.33,115a13.08,13.08,0,0,1-9,8c-7.17,2-12.6,4.14-12.6,4.14L100,118.8Z"/><path class="cls-16" d="M72.17,24.58S62.65,43.14,75.83,53c0,0,2.22-1.39,3.82,1.37,0,0,4.1,1.06,6.06,0,0,0,2.63,2,6.39,4.54,0,0,.91,21.1,5.63,28.05,0,0-1.19,2.14-5.31,2.67S79.21,90,73.24,83.71a4.62,4.62,0,0,0,.94-3C74,79,70.3,64.92,68.3,61.18s-17.1-19.1-2.14-42.34A9.84,9.84,0,0,0,72.17,24.58Z"/><path class="cls-17" d="M70.28,62.2l.8-1.85L73.39,60l-4.07-.65s-7.61-9.62-7.92-20a32.08,32.08,0,0,1,4.81-17.71,9.94,9.94,0,0,0,3.11,1.34h0a9.76,9.76,0,0,1-3.16-4.21c-15,23.24.14,38.6,2.14,42.34S74,79,74.18,80.69a4.46,4.46,0,0,1-.65,2.6C77.44,81.58,70.28,62.2,70.28,62.2Z"/><path class="cls-4" d="M97.73,86.92C93,80,92.1,58.87,92.1,58.87c-1.13-.78-2.16-1.5-3-2.13,0,0-1.17,1.81.27,4.62s3.49,17.51,3.09,19.47A6.17,6.17,0,0,1,90.54,84,4.82,4.82,0,0,0,94,84.5s-7.45,3-13.23.09a3.66,3.66,0,0,0,2.4,2.32c-2.15-.55-8.06-2.25-8.06-4.36s-1.48-8-3-10.29a83.42,83.42,0,0,1,2.08,8.43,4.62,4.62,0,0,1-.94,3c6,6.24,15.05,6.42,19.18,5.88S97.73,86.92,97.73,86.92Z"/><path class="cls-4" d="M79.65,64.18a9.44,9.44,0,0,0,5.24,1.38c3.33,0,3.4,3.87,3.4,3.87S86.15,72.28,88,75s4.21,1.88,5,1.18S91.48,68.5,90.54,67s-2.66-3.74-4.94-3.3-6.36.94-7.26-1c-.66-1.45-.09-6.68-.15-9.78a2.62,2.62,0,0,0-2.36.11,22.71,22.71,0,0,1-.92,3.44C74.18,58.63,74.6,64.59,79.65,64.18Z"/><path class="cls-10" d="M78.68,12.65A23.82,23.82,0,0,1,81.49,9.8c1.9-1.69,5-2.67,6.89.8l1.44.27s.57,1.6.72,2.31-4.83,2.41-4.83,2.41l-5.14-.18Z"/><path class="cls-4" d="M80.66,13.61a2.49,2.49,0,0,1,2-1.68c1.71-.4,2.81,2,2.81,2l.41-.33s-1.71-2.88.37-3.46l1.18,3.79-2.2,1.22Z"/><path class="cls-18" d="M86.26,10.15a14.73,14.73,0,0,1,2.17,3.17V15.9a14.58,14.58,0,0,1-5.08.53,6.89,6.89,0,0,1-2.78-1s-.52-2,1-2.76,3.09,0,3.92,1.91l1.07-.75S84.67,10.94,86.26,10.15Z"/><path class="cls-6" d="M84,63.39a31,31,0,0,1,3.68-1.16c1.55-.33,4.25,1.89,5,7.24l-3.16.13a9.23,9.23,0,0,0-1.84-4.88A3.49,3.49,0,0,0,84,63.39Z"/><path class="cls-5" d="M80.26,63.65s.53.88,3.69-.26c4-1.44,4.82,3.26,4.82,3.26S87.63,64.72,84,64.72C80.9,64.72,80.26,63.65,80.26,63.65Z"/><path class="cls-6" d="M93,69.23a11.19,11.19,0,0,1,3.27-5.88c2.61-2.23,3.41-3,3.34-4.57,0,0,1.08,3.1,0,5.22S96.37,65.72,95,71.4Z"/><path class="cls-19" d="M131.2,48.61c-3.74-2.78-8.11.31-9.9,2.33l1.12,1s4.3-4.78,7.89-2.12a4.54,4.54,0,0,1,1.91,3.62c.1,3-2.22,6.7-4.47,8.62a25.16,25.16,0,0,1-11.11,5.65l.24,1.48a26.34,26.34,0,0,0,11.85-6c2.57-2.2,5.11-6.27,5-9.8A6,6,0,0,0,131.2,48.61Z"/><path class="cls-20" d="M98.78,66.61c-2.73-1.14-6.07-3.92-6.9-6.83a4.52,4.52,0,0,1,.71-4c2.58-3.62,7.93-.54,8.16-.41l.76-1.29c-2.33-1.37-7.44-3-10.14.83a6,6,0,0,0-.93,5.31c1,3.39,4.64,6.49,7.76,7.8a28,28,0,0,0,10.71,2.21,15.47,15.47,0,0,0,2.41-.15l-.23-1.48A25.08,25.08,0,0,1,98.78,66.61Z"/><g class="cls-21"><path class="cls-15" d="M119.72,66.8a18.9,18.9,0,0,1-3.08.9l.24,1.48c.05,0,.37-.07.91-.2C118.41,68.35,119.06,67.62,119.72,66.8Z"/><path class="cls-15" d="M124.89,49.94c-.07-.52-.15-1-.27-1.57a11.62,11.62,0,0,0-3.32,2.57l1.12,1A11.75,11.75,0,0,1,124.89,49.94Z"/><path class="cls-15" d="M107.39,68.64a20.48,20.48,0,0,0,2.49,1.54,14.1,14.1,0,0,0,1.44-.13l-.23-1.48A18.1,18.1,0,0,1,107.39,68.64Z"/><path class="cls-15" d="M98.06,54.25a11.72,11.72,0,0,1,2.69,1.09l.76-1.29a11.75,11.75,0,0,0-3.85-1.4C97.76,53.1,97.89,53.65,98.06,54.25Z"/></g><path class="cls-20" d="M124.8,81.64c.16,1-3.6,2.4-8.39,3.15s-8.8.57-9-.42,3.6-2.41,8.39-3.16S124.65,80.65,124.8,81.64Z"/><path class="cls-19" d="M123.78,81.34c.14.87-3.19,2.13-7.44,2.8s-7.8.49-7.93-.38,3.19-2.13,7.43-2.8S123.65,80.46,123.78,81.34Z"/><path class="cls-20" d="M110.45,69.43s2.31,2.84,2.64,5.38a9.31,9.31,0,0,1-1,5,3.71,3.71,0,0,0,3.93,2L114.32,71Z"/><path class="cls-19" d="M117.52,68.32s-1.34,3.41-.87,5.93a9.3,9.3,0,0,0,2.5,4.44A3.72,3.72,0,0,1,116,81.77L114.32,71Z"/><path class="cls-19" d="M123.33,47.71,111,49.66l-12.38,2S100.41,66.79,114.32,71C126.25,62.72,123.33,47.71,123.33,47.71Z"/><path class="cls-20" d="M98.58,51.61S100.41,66.79,114.32,71L111,49.66Z"/><path class="cls-22" d="M99.85,53.32s1.67.93,5.85.5A27.13,27.13,0,0,0,111.93,69S104,67.38,99.85,53.32Z"/><path class="cls-19" d="M123.33,47.71c.22,1.44-5.13,3.48-12,4.55s-12.56.79-12.79-.65,5.13-3.48,12-4.56S123.1,46.27,123.33,47.71Z"/><g class="cls-21"><path class="cls-15" d="M117.94,50.8c-.7.18-1.2.35-1.2.35C117.15,51.05,117.55,50.93,117.94,50.8Z"/><path class="cls-15" d="M117.39,84.63l-.19,0Z"/><path class="cls-15" d="M123.29,80.89a13.32,13.32,0,0,0-5.12-.22,4,4,0,0,0,1-2,9.3,9.3,0,0,1-2.5-4.44c-.47-2.52.87-5.93.87-5.93l0,0c8.21-8.5,5.85-20.64,5.85-20.64-.13-.8-2-1.25-4.76-1.3l0,0s3.8.72,3.67,1.39-1.83,2.11-4.26,3c1.33-.36,3.36-.77,3.85-.16.74.92,1.86,11.47-7.47,20.4,0,0,1.88-1.48,1.77-.84s-.8,4.3.55,6.5,1.79,3.27-.63,5.07c0,0,4.79-1,5.78-.19s-1.79,2.49-4.22,3c4.22-.78,7.38-2,7.23-3C124.75,81.28,124.19,81,123.29,80.89Z"/></g><path class="cls-20" d="M120.11,48.22c.16,1.06-3.8,2.57-8.85,3.37s-9.29.57-9.45-.49,3.79-2.57,8.84-3.37S119.94,47.15,120.11,48.22Z"/><path class="cls-20" d="M101.81,51.1s.39-2.14,3.32-4.18a6.2,6.2,0,0,0,2.79-5.06l1.77-.28,1.25,8Z"/><path class="cls-20" d="M120.11,48.22s-1-1.92-4.45-3a6.2,6.2,0,0,1-4.21-4l-1.76.28,1.25,8Z"/><path class="cls-4" d="M119.86,47.86a8.25,8.25,0,0,0-4.2-2.6,6.2,6.2,0,0,1-4.21-4l-1.76.28-1.77.28a6.09,6.09,0,0,1-1.66,4.07L110,43.71a20,20,0,0,0,4.88,2c4.56.85,2.76,3.43-3.64,5.88,5-.8,9-2.31,8.85-3.37A.55.55,0,0,0,119.86,47.86Z"/><path class="cls-22" d="M107.7,44.65a8.1,8.1,0,0,1-2.31,2.66A8,8,0,0,0,102.56,51a11.32,11.32,0,0,0,4.7.41s-1.16-2.09.09-3.67a6.15,6.15,0,0,0,1.17-3.62Z"/><polygon class="cls-22" points="107.41 27.16 111.37 32.76 118.23 32.68 114.12 38.17 116.32 44.67 109.82 42.47 104.32 46.56 104.42 39.7 98.82 35.74 105.37 33.7 107.41 27.16"/><polygon class="cls-20" points="107.81 29.8 110.69 33.88 115.68 33.82 112.69 37.82 114.29 42.55 109.56 40.94 105.56 43.92 105.63 38.93 101.55 36.04 106.32 34.56 107.81 29.8"/><polygon class="cls-19" points="107.41 27.16 110.69 33.88 115.68 33.82 112.69 37.82 114.29 42.55 109.82 42.47 116.32 44.67 114.12 38.17 118.23 32.68 111.37 32.76 107.41 27.16"/><circle class="cls-23" cx="91.89" cy="72.58" r="3.64" transform="translate(-21.33 102.46) rotate(-53.09)"/><path class="cls-19" d="M91.9,76.47a4,4,0,0,1-1-.14,3.89,3.89,0,1,1,4.77-2.73h0A3.84,3.84,0,0,1,93.82,76,3.9,3.9,0,0,1,91.9,76.47Zm0-7.3a3.47,3.47,0,0,0-1.68.45A3.41,3.41,0,0,0,91,75.86a3.41,3.41,0,0,0,4.18-2.39h0a3.37,3.37,0,0,0-.33-2.58,3.33,3.33,0,0,0-2.06-1.59A3.06,3.06,0,0,0,91.88,69.17Z"/><path class="cls-20" d="M96.59,72.58A3.65,3.65,0,1,1,93,68.93,3.64,3.64,0,0,1,96.59,72.58Z"/><path class="cls-22" d="M93,76.47a3.89,3.89,0,1,1,3.88-3.89A3.89,3.89,0,0,1,93,76.47Zm0-7.29a3.4,3.4,0,1,0,3.4,3.4A3.4,3.4,0,0,0,93,69.18Z"/><path class="cls-23" d="M93.82,70.2v3.74a.65.65,0,0,0,.14.45.55.55,0,0,0,.41.14h.25v.33H92v-.33h.27a.54.54,0,0,0,.42-.15.61.61,0,0,0,.13-.44V71.46a.61.61,0,0,0-.12-.44.65.65,0,0,0-.43-.11H92v-.28a3.46,3.46,0,0,0,.8-.15,1.22,1.22,0,0,0,.49-.28Z"/><path class="cls-19" d="M93.84,74.53a.57.57,0,0,1-.42-.14.71.71,0,0,1-.13-.45V70.21a1.29,1.29,0,0,1-.48.27,3.46,3.46,0,0,1-.8.15v.28h.27a.65.65,0,0,1,.43.11.61.61,0,0,1,.12.44v2.48a.61.61,0,0,1-.13.44.54.54,0,0,1-.42.15H92v.33h2.08v-.33Z"/><path class="cls-22" d="M93.29,70.21s-.26.36-1.28.42v.28c.48,0,.84-.1.82.55s0,1.93,0,2.65c0,.41-.45.43-.81.42v.33h1L91.89,75v-.54s.75.13.77-.32,0-2.59,0-2.59c0-.44,0-.46-.8-.46v-.57A2.34,2.34,0,0,0,93.29,70.21Z"/><path class="cls-10" d="M80.05,50.64l-.4,4.67s.83,3.47,5.64,4.72L85.71,53S81.33,51,80.05,50.64Z"/><path class="cls-4" d="M79.92,52.16c1,1.21,2.67,2.3,5.69,2.53l.1-1.73S81.33,51,80.05,50.64Z"/><path class="cls-10" d="M81.84,52h0a7.38,7.38,0,0,1-3.42-9.41l2.76-6A8,8,0,0,1,92.28,33h0a8,8,0,0,1,2.91,11.31l-3.58,5.54A7.37,7.37,0,0,1,81.84,52Z"/><path class="cls-10" d="M81.18,36.58a2,2,0,0,1,.11-.2h0a3.55,3.55,0,1,0-3.41,6.21,4.84,4.84,0,0,0,.47.21c0-.07,0-.14.09-.22Z"/><path class="cls-24" d="M77.82,38.51a1.93,1.93,0,0,0,.85,2.6,2.63,2.63,0,0,0,.35.15l1.55-3.35-.1-.07A1.94,1.94,0,0,0,77.82,38.51Z"/><path class="cls-10" d="M95.21,44.29l.11-.2h0a3.55,3.55,0,1,1-3.41,6.2A2.62,2.62,0,0,1,91.5,50l.13-.2Z"/><path class="cls-24" d="M95.39,48.16a1.94,1.94,0,0,1-2.66.68,2.44,2.44,0,0,1-.31-.22l2-3.1.11,0A1.93,1.93,0,0,1,95.39,48.16Z"/><path class="cls-25" d="M88.35,35.83a5.77,5.77,0,0,0-3.52,1.35s3.41,2.28,6.64.37c0,0-.52.78,0,2.77,0,0,1,.55,2.6-1,0,0-.39.83.85,1.7a2,2,0,0,1,.56,2.77A17.08,17.08,0,0,0,99,40.72c1.13-1.51.6-5.41-2-7.57,0,0,1.68-4.32-.19-6.33A5.17,5.17,0,0,0,94,31.14s-.64-6.41-4-8.09a5,5,0,0,0-.57,5s-3-3-5.44-2.91c0,0-.87,1.74,1.49,4.31,0,0-3-1-4.58.4,0,0-.24.85,1.13,1.68,0,0-1.74.36-1.15,1.34s.28,3.69.28,3.69a3.43,3.43,0,0,1,2-1.51A10.17,10.17,0,0,0,88.35,35.83Z"/><path class="cls-26" d="M92.38,40.36a3.59,3.59,0,0,0,1.66-1,1.05,1.05,0,0,0,.06.83c2-.48,2.16-2,2.36-3.34C96.72,35,93.12,34,93.12,34c.13-1.69.13-3.38-1-3.76s-.6,2.69-.6,2.69c-1.23-2.57-3.4-2.93-4.11-2.57s.61,2.31.61,2.31c-2.77-1.34-5.5-.54-5.9,0s.58.77.58.77a3.37,3.37,0,0,0-1.39,2.94h0a3.39,3.39,0,0,1,1.91-1.32,10.18,10.18,0,0,0,5,.77,5.6,5.6,0,0,0-3.39,1.34s3.41,2.28,6.64.37c0,0-.52.78,0,2.77C91.78,40.35,92.09,40.36,92.38,40.36Z"/><path class="cls-18" d="M87.23,42.18l-.27,0a1.1,1.1,0,0,0-1,.44L85,44a1.09,1.09,0,0,1-.87.45h0a1.07,1.07,0,0,0-.94.56v0l1.73,1.44Z"/><path class="cls-24" d="M87.23,42.18l.16.2a1.11,1.11,0,0,1,.16,1.08l-.83,2.07L87,46a1.08,1.08,0,0,1,0,1.1v0l-2.14-.68Z"/><path class="cls-25" d="M86.9,39.93a.49.49,0,0,1-.2,0,7.6,7.6,0,0,1-3.46-3,.5.5,0,0,1,.21-.66.49.49,0,0,1,.66.2h0a6.72,6.72,0,0,0,3,2.61.49.49,0,0,1-.2.94Z"/><path class="cls-25" d="M93.72,42.74a7.83,7.83,0,0,1-4.17-1.29.49.49,0,0,1-.14-.68.48.48,0,0,1,.67-.14,6.74,6.74,0,0,0,3.81,1.13.49.49,0,1,1,.08,1Z"/><path class="cls-27" d="M82.78,50.26a2.84,2.84,0,0,0,3.87-1l-5.08-2.79A2.83,2.83,0,0,0,82.78,50.26Z"/><path class="cls-15" d="M84.67,41.85a.23.23,0,0,1-.16-.06,5.08,5.08,0,0,0-2.43-1.19.25.25,0,0,1,0-.49,4.77,4.77,0,0,1,2.1.85,3.14,3.14,0,0,0-1.54-1.62.25.25,0,0,1-.13-.32.23.23,0,0,1,.32-.13,3.63,3.63,0,0,1,2,2.67.25.25,0,0,1-.25.29Z"/><path class="cls-15" d="M91.42,45.72a.23.23,0,0,1-.2-.1,5.27,5.27,0,0,0-2.3-1.41.26.26,0,0,1-.18-.22.24.24,0,0,1,.15-.24,3.62,3.62,0,0,1,3.35.28.24.24,0,0,1-.28.4,3.16,3.16,0,0,0-2.2-.43,4.65,4.65,0,0,1,1.85,1.32.24.24,0,0,1,0,.35A.3.3,0,0,1,91.42,45.72Z"/><path class="cls-28" d="M83.13,42.9c-.22.4-1.13.32-2-.18s-1.46-1.23-1.24-1.63,1.13-.32,2,.18S83.35,42.49,83.13,42.9Z"/><path class="cls-28" d="M92.12,47.83c-.22.4-1.14.33-2-.17S88.61,46.43,88.83,46s1.14-.32,2,.17S92.34,47.43,92.12,47.83Z"/><path class="cls-6" d="M75.58,51.57s1.2.33.73,2.4-2.53,9.35,4,9.68c0,0-1.87-1.42-1.14-4.6S80.72,50.76,75.58,51.57Z"/><path class="cls-4" d="M123.55,52.45a3.77,3.77,0,0,0-2.72-.56c-1.33.36-3.21,2.49-3.21,2.49l.91,1.83,0,1.41.62.44.36,2,1.19.08s.26.85,1.72,0S123.6,54.16,123.55,52.45Z"/><path class="cls-10" d="M125.05,53.44s-2.38-1.12-3.81-.65a10,10,0,0,0-2.71,1.52l.49,1a4.56,4.56,0,0,1,2.77-.63,4.91,4.91,0,0,1-2.63,1.14V57a8.4,8.4,0,0,0,2.63-.23l-2.06,1.3.3,1.3,1.1-.17.1.9a3.29,3.29,0,0,0,2.62-.83C124.9,58.21,125.05,53.44,125.05,53.44Z"/><path class="cls-27" d="M99.85,33.38h.27A1.89,1.89,0,0,0,99.85,33.38Zm3.8-3s0,2.87-3.53,3c.85,0,3.53.41,3.53,4.64,0-4.23,2.68-4.62,3.54-4.64C103.65,33.24,103.65,30.37,103.65,30.37Zm3.54,3h.26A1.71,1.71,0,0,0,107.19,33.38Z"/><path class="cls-27" d="M99.72,65.19h0Zm4.45-3.53s0,3.37-4.15,3.53c1,0,4.15.48,4.15,5.44,0-5,3.13-5.42,4.14-5.44C104.16,65,104.17,61.66,104.17,61.66Zm4.14,3.53h0Z"/><path class="cls-27" d="M85.36,70.63h0ZM88.62,68s0,2.46-3,2.58c.73,0,3,.35,3,4,0-3.63,2.29-4,3-4C88.61,70.5,88.62,68,88.62,68Zm3,2.58h0Z"/><path class="cls-27" d="M52.24,52.79h0Zm3.33-2.64s0,2.52-3.1,2.64c.75,0,3.1.36,3.1,4.07,0-3.71,2.35-4.06,3.1-4.07C55.56,52.67,55.57,50.15,55.57,50.15Zm3.1,2.64h0Z"/><path class="cls-27" d="M96.29,29.67h0Zm2.53-2s0,1.9-2.35,2c.57,0,2.35.28,2.35,3.09,0-2.81,1.78-3.08,2.35-3.09C98.81,29.57,98.82,27.67,98.82,27.67Zm2.35,2h0Z"/><path class="cls-27" d="M103.52,24.31h0Zm1.93-1.53s0,1.46-1.8,1.53c.44,0,1.8.21,1.8,2.36,0-2.15,1.36-2.35,1.79-2.36C105.44,24.24,105.45,22.78,105.45,22.78Zm1.79,1.53h0Z"/><path class="cls-27" d="M124.89,40.85h0Zm1.93-1.53A1.63,1.63,0,0,1,125,40.85c.43,0,1.79.21,1.79,2.35,0-2.14,1.36-2.35,1.8-2.35C126.82,40.78,126.82,39.32,126.82,39.32Zm1.8,1.53h0Z"/><path class="cls-27" d="M133.72,62.7h0Zm1.93-1.53s0,1.46-1.8,1.53c.44,0,1.8.21,1.8,2.36,0-2.15,1.36-2.35,1.79-2.36C135.64,62.63,135.65,61.17,135.65,61.17Zm1.79,1.53h0Z"/><path class="cls-27" d="M95.8,76.52h0ZM97.73,75a1.63,1.63,0,0,1-1.79,1.53c.43,0,1.79.21,1.79,2.36,0-2.15,1.36-2.35,1.8-2.36C97.73,76.45,97.73,75,97.73,75Zm1.8,1.53h0Z"/><polygon class="cls-20" points="15.75 62.22 12.47 67.89 19.02 67.89 15.75 62.22"/><polygon class="cls-20" points="47.73 15.85 44.46 21.52 51.01 21.52 47.73 15.85"/><polygon class="cls-20" points="22.33 48.45 19.66 48 21.39 45.91 22.33 48.45"/><polygon class="cls-6" points="32.64 42.84 27.6 41.64 31.16 37.88 32.64 42.84"/><polygon class="cls-6" points="25.22 88.46 23.83 82.68 29.53 84.37 25.22 88.46"/><polygon class="cls-20" points="50.15 90.99 47.64 89.18 50.46 87.91 50.15 90.99"/><polygon class="cls-20" points="39.06 71.4 36.55 69.59 39.37 68.33 39.06 71.4"/><polygon class="cls-29" points="152.9 133.21 150.39 131.4 153.21 130.14 152.9 133.21"/><polygon class="cls-20" points="147.9 43.33 151.51 43.21 149.81 46.4 147.9 43.33"/><polygon class="cls-20" points="166.85 51.84 169.45 51.06 168.82 53.7 166.85 51.84"/><polygon class="cls-6" points="146.61 55.23 152.87 53.79 150.98 59.93 146.61 55.23"/><polygon class="cls-6" points="163.46 58.47 166.12 56.19 166.76 59.63 163.46 58.47"/><polygon class="cls-20" points="63.02 11.38 65.62 10.61 64.99 13.24 63.02 11.38"/><polygon class="cls-6" points="99.43 6 104.48 4.85 102.96 9.8 99.43 6"/><polygon class="cls-6" points="157.29 28.73 161.09 33.29 155.23 34.3 157.29 28.73"/><polygon class="cls-29" points="140.73 18.73 146.22 20.38 142.05 24.31 140.73 18.73"/><polygon class="cls-20" points="132.12 58.73 135.16 59.24 133.19 61.63 132.12 58.73"/><polygon class="cls-20" points="157.19 40.69 160.24 41.21 158.27 43.59 157.19 40.69"/><polygon class="cls-30" points="175.44 71.92 180.55 70.77 178.99 75.76 175.44 71.92"/><polygon class="cls-30" points="37.05 30.61 42.15 29.46 40.6 34.46 37.05 30.61"/><polygon class="cls-29" points="178.09 92.97 183.91 92.98 181 98.02 178.09 92.97"/><polygon class="cls-30" points="167.97 99.35 171.5 101.86 167.56 103.67 167.97 99.35"/><polygon class="cls-20" points="160.08 145.95 166.34 144.02 161.54 139.56 160.08 145.95"/><polygon class="cls-20" points="11.47 104.58 17.04 108.03 17.25 101.48 11.47 104.58"/><polygon class="cls-20" points="157.63 114.8 159.03 118.13 155.45 117.67 157.63 114.8"/><polygon class="cls-20" points="34.83 149.23 34.29 151.89 32.26 150.09 34.83 149.23"/><polygon class="cls-29" points="137.28 93.96 140.16 98.27 134.99 98.6 137.28 93.96"/><polygon class="cls-20" points="125.88 200 126.38 197.45 119.49 198.58 125.88 200"/><polygon class="cls-20" points="155.6 178.67 156.1 176.12 149.21 177.25 155.6 178.67"/><polygon class="cls-20" points="128.74 161.65 132.98 161.61 130.98 162.85 128.74 161.65"/><polygon class="cls-20" points="171.23 187.06 174.28 186.76 173.54 187.79 171.23 187.06"/><polygon class="cls-6" points="161.79 189.05 169.14 188.49 166.92 190.88 161.79 189.05"/><polygon class="cls-6" points="1.61 187.41 8.96 186.85 6.74 189.24 1.61 187.41"/><polygon class="cls-6" points="165.31 179.14 171.23 178.69 169.44 180.62 165.31 179.14"/><polygon class="cls-6" points="149.47 172.8 152.59 171.91 153.34 173.25 149.47 172.8"/><polygon class="cls-6" points="166.61 176.7 170.52 175.59 171.47 177.27 166.61 176.7"/><polygon class="cls-30" points="139.04 177.11 146.73 175.95 145.91 178.75 139.04 177.11"/><polygon class="cls-30" points="176.81 181.13 182.8 180.69 180.98 182.63 176.81 181.13"/><polygon class="cls-29" points="103.61 168.74 110.45 168.74 107.02 170.7 103.61 168.74"/><polygon class="cls-30" points="134.35 166.77 138.49 167.75 133.87 168.45 134.35 166.77"/><polygon class="cls-20" points="11.9 192.18 8.06 194.67 15.75 194.67 11.9 192.18"/><polygon class="cls-20" points="60.83 163.59 56.99 166.07 64.67 166.07 60.83 163.59"/><polygon class="cls-20" points="28.1 188.77 24.96 188.57 26.99 187.65 28.1 188.77"/><polygon class="cls-6" points="22.39 181.38 16.48 180.85 20.65 179.2 22.39 181.38"/><polygon class="cls-6" points="56.5 198.97 52.52 199.35 53.63 197.87 56.5 198.97"/><polygon class="cls-6" points="41.63 194.6 37.65 194.98 38.76 193.5 41.63 194.6"/><polygon class="cls-6" points="17.23 193.67 12.24 194.15 13.63 192.29 17.23 193.67"/><polygon class="cls-30" points="59.87 182.18 51.43 182.08 55.88 179.4 59.87 182.18"/><polygon class="cls-30" points="184.42 190.86 175.97 190.76 180.43 188.08 184.42 190.86"/><polygon class="cls-29" points="15.75 180.95 17.92 177.59 24.63 179.98 15.75 180.95"/><polygon class="cls-6" points="158.99 196.25 153.07 195.73 157.25 194.08 158.99 196.25"/><polygon class="cls-29" points="152.34 195.83 154.52 192.47 161.22 194.85 152.34 195.83"/><polygon class="cls-30" points="40.1 172.59 35.28 172.15 38.7 170.81 40.1 172.59"/><polygon class="cls-29" points="49.92 178.76 43.8 177.63 49.48 176.21 49.92 178.76"/><polygon class="cls-30" points="39.55 178.39 37.14 176.72 42.22 176.78 39.55 178.39"/><path class="cls-27" d="M165.58,74a1.78,1.78,0,1,1-1.78-1.78A1.78,1.78,0,0,1,165.58,74Z"/><path class="cls-27" d="M12,91.76a2,2,0,1,1-2-2A2,2,0,0,1,12,91.76Z"/><path class="cls-27" d="M171,126.35a1.4,1.4,0,1,1-1.4-1.4A1.4,1.4,0,0,1,171,126.35Z"/><path class="cls-27" d="M59.57,91.71a.34.34,0,1,1-.33-.33A.34.34,0,0,1,59.57,91.71Z"/><circle class="cls-27" cx="57.23" cy="142.75" r="1.67"/><path class="cls-27" d="M130.48,141.09a1.73,1.73,0,1,1-1.73-1.73A1.72,1.72,0,0,1,130.48,141.09Z"/><circle class="cls-27" cx="151.37" cy="148.5" r="1.9"/><path class="cls-27" d="M171,84.43a1.15,1.15,0,1,1-1.15-1.14A1.15,1.15,0,0,1,171,84.43Z"/><circle class="cls-27" cx="22.52" cy="113.21" r="1.39"/><circle class="cls-27" cx="42.96" cy="147.71" r="1.1"/><path class="cls-27" d="M116,10.69a2,2,0,0,0-.38-2,3.76,3.76,0,0,0-5.47-.4c-.56.53.29,1.37.85.85a2.51,2.51,0,0,1,2.63-.49,2,2,0,0,1,1.16.93.8.8,0,0,1,0,.21,3.56,3.56,0,0,0-.72-.23,2.17,2.17,0,0,0-2.47,1.14,1.24,1.24,0,0,0,1.12,1.71,3.53,3.53,0,0,0,2.51-.75,2.37,2.37,0,0,1,.33,2.34c-.28.72.87,1,1.15.32A3.59,3.59,0,0,0,116,10.69Zm-2.92.43c-.4-.23.13-.34.41-.38a1.49,1.49,0,0,1,.85.16,2,2,0,0,1-.62.21C113.47,11.16,113.34,11.26,113.09,11.12Z"/><path class="cls-27" d="M175.33,160.08a2.07,2.07,0,0,0,.76-1.86,3.76,3.76,0,0,0-4.37-3.32.6.6,0,0,0,.24,1.17,2.54,2.54,0,0,1,2.48,1,2,2,0,0,1,.46,1.41c0,.08-.05.14-.07.21a3.87,3.87,0,0,0-.48-.59,2.18,2.18,0,0,0-2.69-.39,1.23,1.23,0,0,0,0,2,3.48,3.48,0,0,0,2.52.74,2.43,2.43,0,0,1-1,2.15c-.63.44.17,1.33.79.89A3.61,3.61,0,0,0,175.33,160.08Zm-2.69-1.23c-.21-.42.29-.22.56-.1a1.49,1.49,0,0,1,.62.6,2.23,2.23,0,0,1-.64-.16C172.94,159.09,172.78,159.1,172.64,158.85Z"/><path class="cls-30" d="M4.13,36.88a2.06,2.06,0,0,0-2-.09A3.75,3.75,0,0,0,.48,42c.38.67,1.39,0,1-.62a2.54,2.54,0,0,1,.14-2.68,1.94,1.94,0,0,1,1.17-.91.81.81,0,0,1,.22,0,2.83,2.83,0,0,0-.4.65,2.19,2.19,0,0,0,.54,2.66,1.24,1.24,0,0,0,1.93-.7,3.5,3.5,0,0,0-.16-2.61A2.38,2.38,0,0,1,7.29,38c.63.44,1.2-.61.58-1A3.59,3.59,0,0,0,4.13,36.88Zm-.25,2.94c-.32.34-.3-.2-.28-.49A1.48,1.48,0,0,1,4,38.54,2.31,2.31,0,0,1,4,39.2C4,39.46,4.07,39.61,3.88,39.82Z"/><path class="cls-20" d="M154.88,79.26a6.1,6.1,0,0,0-2.78.07,4.56,4.56,0,0,0-4.6.2,2.41,2.41,0,0,0-2.08.33c-.86.59-2,2.71-.34,3,.63.12.9-.84.27-1-.21,0,.75-1.45,1.19-1.5l0,0c-.56.91-.61,2.1.66,2.56s2-.91,1.67-2a2.1,2.1,0,0,0-.51-.93,3.85,3.85,0,0,1,2.44-.23,3.12,3.12,0,0,0-1.11,1.17c-.79,1.54,1.06,2.38,2.35,2s1.58-1.91.85-3a5.54,5.54,0,0,1,1.68.1C155.24,80.35,155.51,79.39,154.88,79.26Zm-2.53,1.89c-.26.33-.53.66-.79,1-1.06.3-.47-1-.15-1.39a1.19,1.19,0,0,1,.34-.29Z"/><path class="cls-6" d="M158.49,10.23a6.15,6.15,0,0,0-2.34-1.51,4.58,4.58,0,0,0-3.91-2.43,2.4,2.4,0,0,0-1.9-.9c-1.05,0-3.16,1.12-2,2.32.44.46,1.21-.19.76-.65-.15-.14,1.44-.77,1.83-.57v.07c-1,.44-1.69,1.38-.9,2.49s2.13.35,2.51-.72a2.26,2.26,0,0,0,.1-1,3.83,3.83,0,0,1,2.14,1.18,3.19,3.19,0,0,0-1.57.35c-1.52.82-.47,2.56.79,3s2.37-.69,2.38-2a5.68,5.68,0,0,1,1.33,1C158.17,11.34,158.93,10.7,158.49,10.23Zm-3.16.14-1.22.38c-1-.35.18-1.09.67-1.23a1.09,1.09,0,0,1,.44,0Z"/><path class="cls-30" d="M41.22,49.75A4,4,0,0,0,40.1,51.2,2.74,2.74,0,0,0,37,52.47,2.86,2.86,0,0,0,33.3,54.9c-.06.43.62.48.68.05a2.17,2.17,0,0,1,2.7-1.86,2.7,2.7,0,0,0,0,1.52c.18.68.86,1.77,1.69,1.32s.43-1.76,0-2.36a2.81,2.81,0,0,0-.83-.82,1.94,1.94,0,0,1,1.11-.86,2.26,2.26,0,0,1,1.21,0,3.69,3.69,0,0,0-.12.82c0,.82.25,2.43,1.19,2.71s1.12-1,1.1-1.61a2.84,2.84,0,0,0-1.32-2.31,3.24,3.24,0,0,1,1-1.21C42,50,41.56,49.47,41.22,49.75ZM37.65,55.1c-.2-.05-.37-.79-.39-1a2,2,0,0,1,0-.74,2.51,2.51,0,0,1,.35.31S38.74,55.41,37.65,55.1Zm3.1-.89c-.43-.43-.35-1.53-.24-2.05a2,2,0,0,1,.46.49C41.27,53.1,41.63,55.09,40.75,54.21Z"/><path class="cls-20" d="M53.9,114c-1.86.5-2.89,3-1.31,4.41.51.46,1.29-.28.78-.74a1.57,1.57,0,0,1,.5-2.55c.34,1.71,2.21,3.88,3.86,2.48s-.95-3.24-2.66-3.62a1.65,1.65,0,0,1,2.71-.53c.48.48,1.26-.25.77-.74A2.78,2.78,0,0,0,53.9,114Zm2.66,2.41c0,.47-.13.59-.41.35a1.52,1.52,0,0,1-.69-.54,2.27,2.27,0,0,1-.52-1.22,3.08,3.08,0,0,1,1,.32C56.44,115.64,56.83,115.78,56.56,116.44Z"/><path class="cls-29" d="M109.3,135.78a3.75,3.75,0,0,0-1.93.39,5.8,5.8,0,0,0-.43-.43c-1.39-1.18-4-.87-4.41,1.14-.18.93,1.25,1.33,1.43.39.22-1.16,1.55-.79,2.2-.2a4,4,0,0,0-1.09,2.46,2.91,2.91,0,0,0,1.18,2.69,1.68,1.68,0,0,0,2.32-.39c.82-1.14.41-3-.36-4.41a2.5,2.5,0,0,1,1.09-.16C110.25,137.33,110.25,135.86,109.3,135.78Zm-1.86,5.05c-.33.25-.78-.38-.86-.61a2.07,2.07,0,0,1,.2-1.46c.07-.14.15-.27.23-.4a5,5,0,0,1,.48,1.85C107.5,140.32,107.53,140.76,107.44,140.83Z"/><path class="cls-20" d="M24.16,158.15a3.64,3.64,0,0,0-1.93.38,4.36,4.36,0,0,0-.43-.43c-1.39-1.17-4-.87-4.41,1.14-.18.93,1.25,1.33,1.43.4.22-1.17,1.55-.8,2.2-.21a4,4,0,0,0-1.09,2.46,3,3,0,0,0,1.18,2.7,1.68,1.68,0,0,0,2.32-.4c.82-1.13.41-3-.36-4.41a2.5,2.5,0,0,1,1.09-.16C25.11,159.7,25.11,158.22,24.16,158.15Zm-1.86,5c-.33.25-.78-.37-.86-.61a2.13,2.13,0,0,1,.2-1.46,3.64,3.64,0,0,1,.23-.39,4.75,4.75,0,0,1,.48,1.84C22.36,162.68,22.39,163.12,22.3,163.19Z"/></g></g></g></svg>